<?xml version="1.0" encoding="UTF-8" standalone="no"?>
<svg width="230.364mm" height="64.5583mm"
 viewBox="0 0 653 183"
 xmlns="http://www.w3.org/2000/svg" xmlns:xlink="http://www.w3.org/1999/xlink"  version="1.2" baseProfile="tiny">
<title>Qt Svg Document</title>
<desc>Generated with Qt</desc>
<defs>
</defs>
<g fill="none" stroke="black" stroke-width="1" fill-rule="evenodd" stroke-linecap="square" stroke-linejoin="bevel" >

<g fill="none" stroke="#000000" stroke-opacity="1" stroke-width="1" stroke-linecap="square" stroke-linejoin="bevel" transform="matrix(1,0,0,1,0,0)"
font-family=".Helvetica Neue DeskInterface" font-size="13" font-weight="400" font-style="normal" 
>
</g>

<g fill="none" stroke="#000000" stroke-opacity="1" stroke-width="1" stroke-linecap="square" stroke-linejoin="bevel" transform="matrix(1,0,0,1,0,0)"
font-family=".Helvetica Neue DeskInterface" font-size="13" font-weight="400" font-style="normal" 
>
</g>

<g fill="none" stroke="#000000" stroke-opacity="1" stroke-width="1" stroke-linecap="square" stroke-linejoin="bevel" transform="matrix(0.989189,0,0,0.989189,520.314,169.151)"
font-family=".Helvetica Neue DeskInterface" font-size="13" font-weight="400" font-style="normal" 
>
</g>

<g fill="none" stroke="#000000" stroke-opacity="1" stroke-width="1" stroke-linecap="square" stroke-linejoin="bevel" transform="matrix(0.989189,0,0,0.989189,520.314,169.151)"
font-family=".Helvetica Neue DeskInterface" font-size="13" font-weight="400" font-style="normal" 
>
</g>

<g fill="none" stroke="#000000" stroke-opacity="1" stroke-width="1" stroke-linecap="square" stroke-linejoin="bevel" transform="matrix(0.989189,0,0,0.989189,520.314,169.151)"
font-family=".Helvetica Neue DeskInterface" font-size="13" font-weight="400" font-style="normal" 
>
</g>

<g fill="none" stroke="#00316e" stroke-opacity="1" stroke-width="1" stroke-linecap="round" stroke-linejoin="round" transform="matrix(0.989189,0,0,0.989189,520.314,169.151)"
font-family=".Helvetica Neue DeskInterface" font-size="13" font-weight="400" font-style="normal" 
>
<path vector-effect="non-scaling-stroke" fill-rule="evenodd" d="M15,-110 L15,-35"/>
</g>

<g fill="none" stroke="#000000" stroke-opacity="1" stroke-width="1" stroke-linecap="square" stroke-linejoin="bevel" transform="matrix(0.989189,0,0,0.989189,520.314,169.151)"
font-family=".Helvetica Neue DeskInterface" font-size="13" font-weight="400" font-style="normal" 
>
</g>

<g fill="none" stroke="#000000" stroke-opacity="1" stroke-width="1" stroke-linecap="square" stroke-linejoin="bevel" transform="matrix(0.989189,0,0,0.989189,520.314,169.151)"
font-family=".Helvetica Neue DeskInterface" font-size="13" font-weight="400" font-style="normal" 
>
</g>

<g fill="none" stroke="#000000" stroke-opacity="1" stroke-width="1" stroke-linecap="square" stroke-linejoin="bevel" transform="matrix(0.989189,0,0,0.989189,520.314,169.151)"
font-family=".Helvetica Neue DeskInterface" font-size="13" font-weight="400" font-style="normal" 
>
</g>

<g fill="none" stroke="#000000" stroke-opacity="1" stroke-width="1" stroke-linecap="square" stroke-linejoin="bevel" transform="matrix(0.989189,0,0,0.989189,520.314,169.151)"
font-family=".Helvetica Neue DeskInterface" font-size="13" font-weight="400" font-style="normal" 
>
</g>

<g fill="none" stroke="#00316e" stroke-opacity="1" stroke-width="1" stroke-linecap="round" stroke-linejoin="round" transform="matrix(0.989189,0,0,0.989189,520.314,169.151)"
font-family=".Helvetica Neue DeskInterface" font-size="13" font-weight="400" font-style="normal" 
>
<path vector-effect="non-scaling-stroke" fill-rule="evenodd" d="M-345,-105 L-345,-35"/>
</g>

<g fill="none" stroke="#000000" stroke-opacity="1" stroke-width="1" stroke-linecap="square" stroke-linejoin="bevel" transform="matrix(0.989189,0,0,0.989189,520.314,169.151)"
font-family=".Helvetica Neue DeskInterface" font-size="13" font-weight="400" font-style="normal" 
>
</g>

<g fill="none" stroke="#000000" stroke-opacity="1" stroke-width="1" stroke-linecap="square" stroke-linejoin="bevel" transform="matrix(0.989189,0,0,0.989189,520.314,169.151)"
font-family=".Helvetica Neue DeskInterface" font-size="13" font-weight="400" font-style="normal" 
>
</g>

<g fill="none" stroke="#000000" stroke-opacity="1" stroke-width="1" stroke-linecap="square" stroke-linejoin="bevel" transform="matrix(0.989189,0,0,0.989189,520.314,169.151)"
font-family=".Helvetica Neue DeskInterface" font-size="13" font-weight="400" font-style="normal" 
>
</g>

<g fill="none" stroke="#000000" stroke-opacity="1" stroke-width="1" stroke-linecap="square" stroke-linejoin="bevel" transform="matrix(0.989189,0,0,0.989189,520.314,169.151)"
font-family=".Helvetica Neue DeskInterface" font-size="13" font-weight="400" font-style="normal" 
>
</g>

<g fill="none" stroke="#00316e" stroke-opacity="1" stroke-width="1" stroke-linecap="round" stroke-linejoin="round" transform="matrix(0.989189,0,0,0.989189,520.314,169.151)"
font-family=".Helvetica Neue DeskInterface" font-size="13" font-weight="400" font-style="normal" 
>
<path vector-effect="non-scaling-stroke" fill-rule="evenodd" d="M-295,-105 L-295,-35"/>
</g>

<g fill="none" stroke="#000000" stroke-opacity="1" stroke-width="1" stroke-linecap="square" stroke-linejoin="bevel" transform="matrix(0.989189,0,0,0.989189,520.314,169.151)"
font-family=".Helvetica Neue DeskInterface" font-size="13" font-weight="400" font-style="normal" 
>
</g>

<g fill="none" stroke="#000000" stroke-opacity="1" stroke-width="1" stroke-linecap="square" stroke-linejoin="bevel" transform="matrix(0.989189,0,0,0.989189,179.043,5.93514)"
font-family=".Helvetica Neue DeskInterface" font-size="13" font-weight="400" font-style="normal" 
>
</g>

<g fill="#e3ad00" fill-opacity="1" stroke="#00316e" stroke-opacity="1" stroke-width="1" stroke-linecap="square" stroke-linejoin="bevel" transform="matrix(0.989189,0,0,0.989189,179.043,5.93514)"
font-family="Helvetica" font-size="13" font-weight="400" font-style="normal" 
>
<path vector-effect="non-scaling-stroke" fill-rule="evenodd" d="M45,6.5 C45,10.0899 40.5228,13 35,13 C29.4772,13 25,10.0899 25,6.5 C25,2.91015 29.4772,0 35,0 C40.5228,0 45,2.91015 45,6.5 "/>
<polyline fill="none" vector-effect="non-scaling-stroke" points="35,13 35,26 " />
<polyline fill="none" vector-effect="non-scaling-stroke" points="35,26 25,40 " />
<polyline fill="none" vector-effect="non-scaling-stroke" points="35,26 45,40 " />
<polyline fill="none" vector-effect="non-scaling-stroke" points="25,19 45,19 " />
</g>

<g fill="#e3ad00" fill-opacity="1" stroke="#000000" stroke-opacity="1" stroke-width="1" stroke-linecap="square" stroke-linejoin="bevel" transform="matrix(0.989189,0,0,0.989189,179.043,5.93514)"
font-family="Helvetica" font-size="13" font-weight="400" font-style="normal" 
>
</g>

<g fill="#e3ad00" fill-opacity="1" stroke="#000000" stroke-opacity="1" stroke-width="1" stroke-linecap="square" stroke-linejoin="bevel" transform="matrix(0.989189,0,0,0.989189,179.043,5.93514)"
font-family="Helvetica" font-size="13" font-weight="400" font-style="normal" 
>
<text fill="#000000" fill-opacity="1" stroke="none" xml:space="preserve" x="4.82812" y="55" font-family="Helvetica" font-size="13" font-weight="400" font-style="normal" 
 >Mitarbeiter</text>
</g>

<g fill="#e3ad00" fill-opacity="1" stroke="#000000" stroke-opacity="1" stroke-width="1" stroke-linecap="square" stroke-linejoin="bevel" transform="matrix(0.989189,0,0,0.989189,179.043,5.93514)"
font-family="Helvetica" font-size="13" font-weight="400" font-style="normal" 
>
</g>

<g fill="#e3ad00" fill-opacity="1" stroke="#000000" stroke-opacity="1" stroke-width="1" stroke-linecap="square" stroke-linejoin="bevel" transform="matrix(1,0,0,1,0,0)"
font-family="Helvetica" font-size="13" font-weight="400" font-style="normal" 
>
</g>

<g fill="#e3ad00" fill-opacity="1" stroke="#000000" stroke-opacity="1" stroke-width="1" stroke-linecap="square" stroke-linejoin="bevel" transform="matrix(0.989189,0,0,0.989189,179.043,5.93514)"
font-family="Helvetica" font-size="13" font-weight="400" font-style="normal" 
>
</g>

<g fill="none" stroke="#000000" stroke-opacity="1" stroke-width="1" stroke-linecap="square" stroke-linejoin="bevel" transform="matrix(0.989189,0,0,0.989189,179.043,5.93514)"
font-family=".Helvetica Neue DeskInterface" font-size="13" font-weight="400" font-style="normal" 
>
</g>

<g fill="none" stroke="#000000" stroke-opacity="1" stroke-width="1" stroke-linecap="square" stroke-linejoin="bevel" transform="matrix(0.989189,0,0,0.989189,495.584,0.989189)"
font-family=".Helvetica Neue DeskInterface" font-size="13" font-weight="400" font-style="normal" 
>
</g>

<g fill="#e3ad00" fill-opacity="1" stroke="#00316e" stroke-opacity="1" stroke-width="1" stroke-linecap="square" stroke-linejoin="bevel" transform="matrix(0.989189,0,0,0.989189,495.584,0.989189)"
font-family="Helvetica" font-size="13" font-weight="400" font-style="normal" 
>
<path vector-effect="non-scaling-stroke" fill-rule="evenodd" d="M48,6.5 C48,10.0899 43.5228,13 38,13 C32.4772,13 28,10.0899 28,6.5 C28,2.91015 32.4772,0 38,0 C43.5228,0 48,2.91015 48,6.5 "/>
<polyline fill="none" vector-effect="non-scaling-stroke" points="38,13 38,26 " />
<polyline fill="none" vector-effect="non-scaling-stroke" points="38,26 28,40 " />
<polyline fill="none" vector-effect="non-scaling-stroke" points="38,26 48,40 " />
<polyline fill="none" vector-effect="non-scaling-stroke" points="28,19 48,19 " />
</g>

<g fill="#e3ad00" fill-opacity="1" stroke="#000000" stroke-opacity="1" stroke-width="1" stroke-linecap="square" stroke-linejoin="bevel" transform="matrix(0.989189,0,0,0.989189,495.584,0.989189)"
font-family="Helvetica" font-size="13" font-weight="400" font-style="normal" 
>
</g>

<g fill="#e3ad00" fill-opacity="1" stroke="#000000" stroke-opacity="1" stroke-width="1" stroke-linecap="square" stroke-linejoin="bevel" transform="matrix(0.989189,0,0,0.989189,495.584,0.989189)"
font-family="Helvetica" font-size="13" font-weight="400" font-style="normal" 
>
<text fill="#000000" fill-opacity="1" stroke="none" xml:space="preserve" x="4.8125" y="55" font-family="Helvetica" font-size="13" font-weight="400" font-style="normal" 
 >Wachdienst</text>
</g>

<g fill="#e3ad00" fill-opacity="1" stroke="#000000" stroke-opacity="1" stroke-width="1" stroke-linecap="square" stroke-linejoin="bevel" transform="matrix(0.989189,0,0,0.989189,495.584,0.989189)"
font-family="Helvetica" font-size="13" font-weight="400" font-style="normal" 
>
</g>

<g fill="#e3ad00" fill-opacity="1" stroke="#000000" stroke-opacity="1" stroke-width="1" stroke-linecap="square" stroke-linejoin="bevel" transform="matrix(1,0,0,1,0,0)"
font-family="Helvetica" font-size="13" font-weight="400" font-style="normal" 
>
</g>

<g fill="#e3ad00" fill-opacity="1" stroke="#000000" stroke-opacity="1" stroke-width="1" stroke-linecap="square" stroke-linejoin="bevel" transform="matrix(0.989189,0,0,0.989189,495.584,0.989189)"
font-family="Helvetica" font-size="13" font-weight="400" font-style="normal" 
>
</g>

<g fill="none" stroke="#000000" stroke-opacity="1" stroke-width="1" stroke-linecap="square" stroke-linejoin="bevel" transform="matrix(0.989189,0,0,0.989189,495.584,0.989189)"
font-family=".Helvetica Neue DeskInterface" font-size="13" font-weight="400" font-style="normal" 
>
</g>

<g fill="none" stroke="#000000" stroke-opacity="1" stroke-width="1" stroke-linecap="square" stroke-linejoin="bevel" transform="matrix(0.989189,0,0,0.989189,416.449,134.53)"
font-family=".Helvetica Neue DeskInterface" font-size="13" font-weight="400" font-style="normal" 
>
</g>

<g fill="#e3ad00" fill-opacity="1" stroke="#00316e" stroke-opacity="1" stroke-width="1" stroke-linecap="square" stroke-linejoin="bevel" transform="matrix(0.989189,0,0,0.989189,416.449,134.53)"
font-family="Helvetica" font-size="13" font-weight="400" font-style="normal" 
>
<path vector-effect="non-scaling-stroke" fill-rule="evenodd" d="M233,24 C233,37.2548 180.841,48 116.5,48 C52.1588,48 0,37.2548 0,24 C0,10.7452 52.1588,0 116.5,0 C180.841,0 233,10.7452 233,24 "/>
</g>

<g fill="#e3ad00" fill-opacity="1" stroke="#000000" stroke-opacity="1" stroke-width="1" stroke-linecap="square" stroke-linejoin="bevel" transform="matrix(0.989189,0,0,0.989189,416.449,134.53)"
font-family="Helvetica" font-size="13" font-weight="400" font-style="normal" 
>
<text fill="#000000" fill-opacity="1" stroke="none" xml:space="preserve" x="14.375" y="28" font-family="Helvetica" font-size="13" font-weight="400" font-style="normal" 
 >stündliche Information Anwesenheit</text>
</g>

<g fill="none" stroke="#000000" stroke-opacity="1" stroke-width="1" stroke-linecap="square" stroke-linejoin="bevel" transform="matrix(0.989189,0,0,0.989189,416.449,134.53)"
font-family=".Helvetica Neue DeskInterface" font-size="13" font-weight="400" font-style="normal" 
>
</g>

<g fill="none" stroke="#000000" stroke-opacity="1" stroke-width="1" stroke-linecap="square" stroke-linejoin="bevel" transform="matrix(0.989189,0,0,0.989189,0.989189,134.53)"
font-family=".Helvetica Neue DeskInterface" font-size="13" font-weight="400" font-style="normal" 
>
</g>

<g fill="#e3ad00" fill-opacity="1" stroke="#00316e" stroke-opacity="1" stroke-width="1" stroke-linecap="square" stroke-linejoin="bevel" transform="matrix(0.989189,0,0,0.989189,0.989189,134.53)"
font-family="Helvetica" font-size="13" font-weight="400" font-style="normal" 
>
<path vector-effect="non-scaling-stroke" fill-rule="evenodd" d="M184,24 C184,37.2548 142.81,48 92,48 C41.1898,48 0,37.2548 0,24 C0,10.7452 41.1898,0 92,0 C142.81,0 184,10.7452 184,24 "/>
</g>

<g fill="#e3ad00" fill-opacity="1" stroke="#000000" stroke-opacity="1" stroke-width="1" stroke-linecap="square" stroke-linejoin="bevel" transform="matrix(0.989189,0,0,0.989189,0.989189,134.53)"
font-family="Helvetica" font-size="13" font-weight="400" font-style="normal" 
>
<text fill="#000000" fill-opacity="1" stroke="none" xml:space="preserve" x="39.6562" y="28" font-family="Helvetica" font-size="13" font-weight="400" font-style="normal" 
 >Gebäude betreten</text>
</g>

<g fill="none" stroke="#000000" stroke-opacity="1" stroke-width="1" stroke-linecap="square" stroke-linejoin="bevel" transform="matrix(0.989189,0,0,0.989189,0.989189,134.53)"
font-family=".Helvetica Neue DeskInterface" font-size="13" font-weight="400" font-style="normal" 
>
</g>

<g fill="none" stroke="#000000" stroke-opacity="1" stroke-width="1" stroke-linecap="square" stroke-linejoin="bevel" transform="matrix(0.989189,0,0,0.989189,228.503,134.53)"
font-family=".Helvetica Neue DeskInterface" font-size="13" font-weight="400" font-style="normal" 
>
</g>

<g fill="#e3ad00" fill-opacity="1" stroke="#00316e" stroke-opacity="1" stroke-width="1" stroke-linecap="square" stroke-linejoin="bevel" transform="matrix(0.989189,0,0,0.989189,228.503,134.53)"
font-family="Helvetica" font-size="13" font-weight="400" font-style="normal" 
>
<path vector-effect="non-scaling-stroke" fill-rule="evenodd" d="M161,24 C161,37.2548 124.959,48 80.5,48 C36.0411,48 0,37.2548 0,24 C0,10.7452 36.0411,0 80.5,0 C124.959,0 161,10.7452 161,24 "/>
</g>

<g fill="#e3ad00" fill-opacity="1" stroke="#000000" stroke-opacity="1" stroke-width="1" stroke-linecap="square" stroke-linejoin="bevel" transform="matrix(0.989189,0,0,0.989189,228.503,134.53)"
font-family="Helvetica" font-size="13" font-weight="400" font-style="normal" 
>
<text fill="#000000" fill-opacity="1" stroke="none" xml:space="preserve" x="24.1875" y="28" font-family="Helvetica" font-size="13" font-weight="400" font-style="normal" 
 >Gebäude verlassen</text>
</g>

<g fill="none" stroke="#000000" stroke-opacity="1" stroke-width="1" stroke-linecap="square" stroke-linejoin="bevel" transform="matrix(0.989189,0,0,0.989189,228.503,134.53)"
font-family=".Helvetica Neue DeskInterface" font-size="13" font-weight="400" font-style="normal" 
>
</g>

<g fill="none" stroke="#000000" stroke-opacity="1" stroke-width="1" stroke-linecap="square" stroke-linejoin="bevel" transform="matrix(0.989189,0,0,0.989189,144.422,75.1784)"
font-family=".Helvetica Neue DeskInterface" font-size="13" font-weight="400" font-style="normal" 
>
</g>

<g fill="#e3ad00" fill-opacity="1" stroke="#00316e" stroke-opacity="1" stroke-width="1" stroke-linecap="square" stroke-linejoin="bevel" transform="matrix(0.989189,0,0,0.989189,144.422,75.1784)"
font-family=".Helvetica Neue DeskInterface" font-size="13" font-weight="400" font-style="normal" 
>
<path vector-effect="non-scaling-stroke" fill-rule="evenodd" d="M0,0 L0,42 L129,42 L129,10 L119,0 L0,0"/>
<polyline fill="none" vector-effect="non-scaling-stroke" points="119,0 119,10 " />
<polyline fill="none" vector-effect="non-scaling-stroke" points="119,10 129,10 " />
</g>

<g fill="#e3ad00" fill-opacity="1" stroke="#000000" stroke-opacity="1" stroke-width="1" stroke-linecap="square" stroke-linejoin="bevel" transform="matrix(0.989189,0,0,0.989189,144.422,75.1784)"
font-family="Helvetica" font-size="13" font-weight="400" font-style="normal" 
>
<text fill="#000000" fill-opacity="1" stroke="none" xml:space="preserve" x="12" y="29" font-family="Helvetica" font-size="13" font-weight="400" font-style="normal" 
 >Mitarbeiterausweis</text>
</g>

<g fill="none" stroke="#000000" stroke-opacity="1" stroke-width="1" stroke-linecap="square" stroke-linejoin="bevel" transform="matrix(0.989189,0,0,0.989189,144.422,75.1784)"
font-family=".Helvetica Neue DeskInterface" font-size="13" font-weight="400" font-style="normal" 
>
</g>

<g fill="none" stroke="#000000" stroke-opacity="1" stroke-width="1" stroke-linecap="square" stroke-linejoin="bevel" transform="matrix(1,0,0,1,0,0)"
font-family=".Helvetica Neue DeskInterface" font-size="13" font-weight="400" font-style="normal" 
>
</g>
</g>
</svg>
