<?xml version="1.0" encoding="UTF-8" standalone="no"?>
<svg width="268.817mm" height="124.883mm"
 viewBox="0 0 762 354"
 xmlns="http://www.w3.org/2000/svg" xmlns:xlink="http://www.w3.org/1999/xlink"  version="1.2" baseProfile="tiny">
<title>Qt Svg Document</title>
<desc>Generated with Qt</desc>
<defs>
</defs>
<g fill="none" stroke="black" stroke-width="1" fill-rule="evenodd" stroke-linecap="square" stroke-linejoin="bevel" >

<g fill="none" stroke="#000000" stroke-opacity="1" stroke-width="1" stroke-linecap="square" stroke-linejoin="bevel" transform="matrix(1,0,0,1,0,0)"
font-family=".Helvetica Neue DeskInterface" font-size="13" font-weight="400" font-style="normal" 
>
</g>

<g fill="none" stroke="#000000" stroke-opacity="1" stroke-width="1" stroke-linecap="square" stroke-linejoin="bevel" transform="matrix(1,0,0,1,0,0)"
font-family=".Helvetica Neue DeskInterface" font-size="13" font-weight="400" font-style="normal" 
>
</g>

<g fill="none" stroke="#000000" stroke-opacity="1" stroke-width="1" stroke-linecap="square" stroke-linejoin="bevel" transform="matrix(0.994258,0,0,0.994258,358.616,218.341)"
font-family=".Helvetica Neue DeskInterface" font-size="13" font-weight="400" font-style="normal" 
>
</g>

<g fill="#e3ad00" fill-opacity="1" stroke="#00316e" stroke-opacity="1" stroke-width="1" stroke-linecap="square" stroke-linejoin="bevel" transform="matrix(0.994258,0,0,0.994258,358.616,218.341)"
font-family="Helvetica" font-size="13" font-weight="400" font-style="normal" 
>
<path vector-effect="non-scaling-stroke" fill-rule="evenodd" d="M59,6.5 C59,10.0899 54.5228,13 49,13 C43.4772,13 39,10.0899 39,6.5 C39,2.91015 43.4772,0 49,0 C54.5228,0 59,2.91015 59,6.5 "/>
<polyline fill="none" vector-effect="non-scaling-stroke" points="49,13 49,26 " />
<polyline fill="none" vector-effect="non-scaling-stroke" points="49,26 39,40 " />
<polyline fill="none" vector-effect="non-scaling-stroke" points="49,26 59,40 " />
<polyline fill="none" vector-effect="non-scaling-stroke" points="39,19 59,19 " />
</g>

<g fill="#e3ad00" fill-opacity="1" stroke="#000000" stroke-opacity="1" stroke-width="1" stroke-linecap="square" stroke-linejoin="bevel" transform="matrix(0.994258,0,0,0.994258,358.616,218.341)"
font-family="Helvetica" font-size="13" font-weight="400" font-style="normal" 
>
<text fill="#000000" fill-opacity="1" stroke="none" xml:space="preserve" x="5.125" y="55" font-family="Helvetica" font-size="13" font-weight="400" font-style="normal" 
 >Abteilungsleiter</text>
</g>

<g fill="none" stroke="#000000" stroke-opacity="1" stroke-width="1" stroke-linecap="square" stroke-linejoin="bevel" transform="matrix(0.994258,0,0,0.994258,358.616,218.341)"
font-family=".Helvetica Neue DeskInterface" font-size="13" font-weight="400" font-style="normal" 
>
</g>

<g fill="none" stroke="#000000" stroke-opacity="1" stroke-width="1" stroke-linecap="square" stroke-linejoin="bevel" transform="matrix(0.994258,0,0,0.994258,338.858,305.281)"
font-family=".Helvetica Neue DeskInterface" font-size="13" font-weight="400" font-style="normal" 
>
</g>

<g fill="#e3ad00" fill-opacity="1" stroke="#00316e" stroke-opacity="1" stroke-width="1" stroke-linecap="square" stroke-linejoin="bevel" transform="matrix(0.994258,0,0,0.994258,338.858,305.281)"
font-family="Helvetica" font-size="13" font-weight="400" font-style="italic" 
>
<path vector-effect="non-scaling-stroke" fill-rule="evenodd" d="M147,24 C147,37.2548 114.093,48 73.5,48 C32.9071,48 0,37.2548 0,24 C0,10.7452 32.9071,0 73.5,0 C114.093,0 147,10.7452 147,24 "/>
</g>

<g fill="#e3ad00" fill-opacity="1" stroke="#000000" stroke-opacity="1" stroke-width="1" stroke-linecap="square" stroke-linejoin="bevel" transform="matrix(0.994258,0,0,0.994258,338.858,305.281)"
font-family="Helvetica" font-size="13" font-weight="400" font-style="italic" 
>
<text fill="#000000" fill-opacity="1" stroke="none" xml:space="preserve" x="9.625" y="28" font-family="Helvetica" font-size="13" font-weight="400" font-style="italic" 
 >Anwesenheit erfassen</text>
</g>

<g fill="none" stroke="#000000" stroke-opacity="1" stroke-width="1" stroke-linecap="square" stroke-linejoin="bevel" transform="matrix(0.994258,0,0,0.994258,338.858,305.281)"
font-family=".Helvetica Neue DeskInterface" font-size="13" font-weight="400" font-style="normal" 
>
</g>

<g fill="none" stroke="#000000" stroke-opacity="1" stroke-width="1" stroke-linecap="square" stroke-linejoin="bevel" transform="matrix(0.994258,0,0,0.994258,347.896,96.7499)"
font-family=".Helvetica Neue DeskInterface" font-size="13" font-weight="400" font-style="normal" 
>
</g>

<g fill="#e3ad00" fill-opacity="1" stroke="#00316e" stroke-opacity="1" stroke-width="1" stroke-linecap="square" stroke-linejoin="bevel" transform="matrix(0.994258,0,0,0.994258,347.896,96.7499)"
font-family="Helvetica" font-size="13" font-weight="400" font-style="italic" 
>
<path vector-effect="non-scaling-stroke" fill-rule="evenodd" d="M115,24 C115,37.2548 89.2564,48 57.5,48 C25.7436,48 0,37.2548 0,24 C0,10.7452 25.7436,0 57.5,0 C89.2564,0 115,10.7452 115,24 "/>
</g>

<g fill="#e3ad00" fill-opacity="1" stroke="#000000" stroke-opacity="1" stroke-width="1" stroke-linecap="square" stroke-linejoin="bevel" transform="matrix(0.994258,0,0,0.994258,347.896,96.7499)"
font-family="Helvetica" font-size="13" font-weight="400" font-style="italic" 
>
<text fill="#000000" fill-opacity="1" stroke="none" xml:space="preserve" x="8.79688" y="28" font-family="Helvetica" font-size="13" font-weight="400" font-style="italic" 
 >Urlaub verwalten</text>
</g>

<g fill="none" stroke="#000000" stroke-opacity="1" stroke-width="1" stroke-linecap="square" stroke-linejoin="bevel" transform="matrix(0.994258,0,0,0.994258,347.896,96.7499)"
font-family=".Helvetica Neue DeskInterface" font-size="13" font-weight="400" font-style="normal" 
>
</g>

<g fill="none" stroke="#000000" stroke-opacity="1" stroke-width="1" stroke-linecap="square" stroke-linejoin="bevel" transform="matrix(0.994258,0,0,0.994258,182.878,100.6)"
font-family=".Helvetica Neue DeskInterface" font-size="13" font-weight="400" font-style="normal" 
>
</g>

<g fill="#e3ad00" fill-opacity="1" stroke="#00316e" stroke-opacity="1" stroke-width="1" stroke-linecap="square" stroke-linejoin="bevel" transform="matrix(0.994258,0,0,0.994258,182.878,100.6)"
font-family="Helvetica" font-size="13" font-weight="400" font-style="italic" 
>
<path vector-effect="non-scaling-stroke" fill-rule="evenodd" d="M97,24 C97,37.2548 75.2858,48 48.5,48 C21.7142,48 0,37.2548 0,24 C0,10.7452 21.7142,0 48.5,0 C75.2858,0 97,10.7452 97,24 "/>
</g>

<g fill="#e3ad00" fill-opacity="1" stroke="#000000" stroke-opacity="1" stroke-width="1" stroke-linecap="square" stroke-linejoin="bevel" transform="matrix(0.994258,0,0,0.994258,182.878,100.6)"
font-family="Helvetica" font-size="13" font-weight="400" font-style="italic" 
>
<text fill="#000000" fill-opacity="1" stroke="none" xml:space="preserve" x="8.09375" y="28" font-family="Helvetica" font-size="13" font-weight="400" font-style="italic" 
 >Urlaub planen</text>
</g>

<g fill="none" stroke="#000000" stroke-opacity="1" stroke-width="1" stroke-linecap="square" stroke-linejoin="bevel" transform="matrix(0.994258,0,0,0.994258,182.878,100.6)"
font-family=".Helvetica Neue DeskInterface" font-size="13" font-weight="400" font-style="normal" 
>
</g>

<g fill="none" stroke="#000000" stroke-opacity="1" stroke-width="1" stroke-linecap="square" stroke-linejoin="bevel" transform="matrix(0.994258,0,0,0.994258,143.861,0.994258)"
font-family=".Helvetica Neue DeskInterface" font-size="13" font-weight="400" font-style="normal" 
>
</g>

<g fill="#e3ad00" fill-opacity="1" stroke="#00316e" stroke-opacity="1" stroke-width="1" stroke-linecap="square" stroke-linejoin="bevel" transform="matrix(0.994258,0,0,0.994258,143.861,0.994258)"
font-family="Helvetica" font-size="13" font-weight="400" font-style="normal" 
>
<path vector-effect="non-scaling-stroke" fill-rule="evenodd" d="M158,24 C158,37.2548 122.63,48 79,48 C35.3695,48 0,37.2548 0,24 C0,10.7452 35.3695,0 79,0 C122.63,0 158,10.7452 158,24 "/>
</g>

<g fill="#e3ad00" fill-opacity="1" stroke="#000000" stroke-opacity="1" stroke-width="1" stroke-linecap="square" stroke-linejoin="bevel" transform="matrix(0.994258,0,0,0.994258,143.861,0.994258)"
font-family="Helvetica" font-size="13" font-weight="400" font-style="normal" 
>
<text fill="#000000" fill-opacity="1" stroke="none" xml:space="preserve" x="10.4219" y="28" font-family="Helvetica" font-size="13" font-weight="400" font-style="normal" 
 >Krankmeldung erfassen</text>
</g>

<g fill="none" stroke="#000000" stroke-opacity="1" stroke-width="1" stroke-linecap="square" stroke-linejoin="bevel" transform="matrix(0.994258,0,0,0.994258,143.861,0.994258)"
font-family=".Helvetica Neue DeskInterface" font-size="13" font-weight="400" font-style="normal" 
>
</g>

<g fill="none" stroke="#000000" stroke-opacity="1" stroke-width="1" stroke-linecap="square" stroke-linejoin="bevel" transform="matrix(0.994258,0,0,0.994258,0.994258,214.314)"
font-family=".Helvetica Neue DeskInterface" font-size="13" font-weight="400" font-style="normal" 
>
</g>

<g fill="#e3ad00" fill-opacity="1" stroke="#00316e" stroke-opacity="1" stroke-width="1" stroke-linecap="square" stroke-linejoin="bevel" transform="matrix(0.994258,0,0,0.994258,0.994258,214.314)"
font-family="Helvetica" font-size="13" font-weight="400" font-style="normal" 
>
<path vector-effect="non-scaling-stroke" fill-rule="evenodd" d="M158,24 C158,37.2548 122.63,48 79,48 C35.3695,48 0,37.2548 0,24 C0,10.7452 35.3695,0 79,0 C122.63,0 158,10.7452 158,24 "/>
</g>

<g fill="#e3ad00" fill-opacity="1" stroke="#000000" stroke-opacity="1" stroke-width="1" stroke-linecap="square" stroke-linejoin="bevel" transform="matrix(0.994258,0,0,0.994258,0.994258,214.314)"
font-family="Helvetica" font-size="13" font-weight="400" font-style="normal" 
>
<text fill="#000000" fill-opacity="1" stroke="none" xml:space="preserve" x="10.0781" y="28" font-family="Helvetica" font-size="13" font-weight="400" font-style="normal" 
 >Anwesenheit auswerten</text>
</g>

<g fill="none" stroke="#000000" stroke-opacity="1" stroke-width="1" stroke-linecap="square" stroke-linejoin="bevel" transform="matrix(0.994258,0,0,0.994258,0.994258,214.314)"
font-family=".Helvetica Neue DeskInterface" font-size="13" font-weight="400" font-style="normal" 
>
</g>

<g fill="none" stroke="#000000" stroke-opacity="1" stroke-width="1" stroke-linecap="square" stroke-linejoin="bevel" transform="matrix(0.994258,0,0,0.994258,532.104,100.999)"
font-family=".Helvetica Neue DeskInterface" font-size="13" font-weight="400" font-style="normal" 
>
</g>

<g fill="#e3ad00" fill-opacity="1" stroke="#00316e" stroke-opacity="1" stroke-width="1" stroke-linecap="square" stroke-linejoin="bevel" transform="matrix(0.994258,0,0,0.994258,532.104,100.999)"
font-family="Helvetica" font-size="13" font-weight="400" font-style="italic" 
>
<path vector-effect="non-scaling-stroke" fill-rule="evenodd" d="M228,24 C228,37.2548 176.96,48 114,48 C51.0395,48 0,37.2548 0,24 C0,10.7452 51.0395,0 114,0 C176.96,0 228,10.7452 228,24 "/>
</g>

<g fill="#e3ad00" fill-opacity="1" stroke="#000000" stroke-opacity="1" stroke-width="1" stroke-linecap="square" stroke-linejoin="bevel" transform="matrix(0.994258,0,0,0.994258,532.104,100.999)"
font-family="Helvetica" font-size="13" font-weight="400" font-style="italic" 
>
<text fill="#000000" fill-opacity="1" stroke="none" xml:space="preserve" x="14.4219" y="28" font-family="Helvetica" font-size="13" font-weight="400" font-style="italic" 
 >Zeitauswertung für Abteilungsleiter</text>
</g>

<g fill="none" stroke="#000000" stroke-opacity="1" stroke-width="1" stroke-linecap="square" stroke-linejoin="bevel" transform="matrix(0.994258,0,0,0.994258,532.104,100.999)"
font-family=".Helvetica Neue DeskInterface" font-size="13" font-weight="400" font-style="normal" 
>
</g>

<g fill="none" stroke="#000000" stroke-opacity="1" stroke-width="1" stroke-linecap="square" stroke-linejoin="bevel" transform="matrix(0.994258,0,0,0.994258,320.855,7.63903)"
font-family=".Helvetica Neue DeskInterface" font-size="13" font-weight="400" font-style="normal" 
>
</g>

<g fill="#e3ad00" fill-opacity="1" stroke="#00316e" stroke-opacity="1" stroke-width="1" stroke-linecap="square" stroke-linejoin="bevel" transform="matrix(0.994258,0,0,0.994258,320.855,7.63903)"
font-family="Helvetica" font-size="13" font-weight="400" font-style="normal" 
>
<path vector-effect="non-scaling-stroke" fill-rule="evenodd" d="M86,6.5 C86,10.0899 81.5228,13 76,13 C70.4772,13 66,10.0899 66,6.5 C66,2.91015 70.4772,0 76,0 C81.5228,0 86,2.91015 86,6.5 "/>
<polyline fill="none" vector-effect="non-scaling-stroke" points="76,13 76,26 " />
<polyline fill="none" vector-effect="non-scaling-stroke" points="76,26 66,40 " />
<polyline fill="none" vector-effect="non-scaling-stroke" points="76,26 86,40 " />
<polyline fill="none" vector-effect="non-scaling-stroke" points="66,19 86,19 " />
</g>

<g fill="#e3ad00" fill-opacity="1" stroke="#000000" stroke-opacity="1" stroke-width="1" stroke-linecap="square" stroke-linejoin="bevel" transform="matrix(0.994258,0,0,0.994258,320.855,7.63903)"
font-family="Helvetica" font-size="13" font-weight="400" font-style="normal" 
>
<text fill="#000000" fill-opacity="1" stroke="none" xml:space="preserve" x="5.04688" y="55" font-family="Helvetica" font-size="13" font-weight="400" font-style="normal" 
 >Sachbearbeiter Personal</text>
</g>

<g fill="none" stroke="#000000" stroke-opacity="1" stroke-width="1" stroke-linecap="square" stroke-linejoin="bevel" transform="matrix(0.994258,0,0,0.994258,320.855,7.63903)"
font-family=".Helvetica Neue DeskInterface" font-size="13" font-weight="400" font-style="normal" 
>
</g>

<g fill="none" stroke="#000000" stroke-opacity="1" stroke-width="1" stroke-linecap="square" stroke-linejoin="bevel" transform="matrix(0.994258,0,0,0.994258,550.672,217.26)"
font-family=".Helvetica Neue DeskInterface" font-size="13" font-weight="400" font-style="normal" 
>
</g>

<g fill="#e3ad00" fill-opacity="1" stroke="#00316e" stroke-opacity="1" stroke-width="1" stroke-linecap="square" stroke-linejoin="bevel" transform="matrix(0.994258,0,0,0.994258,550.672,217.26)"
font-family="Helvetica" font-size="13" font-weight="400" font-style="normal" 
>
<path vector-effect="non-scaling-stroke" fill-rule="evenodd" d="M48,6.5 C48,10.0899 43.5228,13 38,13 C32.4772,13 28,10.0899 28,6.5 C28,2.91015 32.4772,0 38,0 C43.5228,0 48,2.91015 48,6.5 "/>
<polyline fill="none" vector-effect="non-scaling-stroke" points="38,13 38,26 " />
<polyline fill="none" vector-effect="non-scaling-stroke" points="38,26 28,40 " />
<polyline fill="none" vector-effect="non-scaling-stroke" points="38,26 48,40 " />
<polyline fill="none" vector-effect="non-scaling-stroke" points="28,19 48,19 " />
</g>

<g fill="#e3ad00" fill-opacity="1" stroke="#000000" stroke-opacity="1" stroke-width="1" stroke-linecap="square" stroke-linejoin="bevel" transform="matrix(0.994258,0,0,0.994258,550.672,217.26)"
font-family="Helvetica" font-size="13" font-weight="400" font-style="normal" 
>
</g>

<g fill="#e3ad00" fill-opacity="1" stroke="#000000" stroke-opacity="1" stroke-width="1" stroke-linecap="square" stroke-linejoin="bevel" transform="matrix(0.994258,0,0,0.994258,550.672,217.26)"
font-family="Helvetica" font-size="13" font-weight="400" font-style="normal" 
>
<text fill="#000000" fill-opacity="1" stroke="none" xml:space="preserve" x="4.8125" y="55" font-family="Helvetica" font-size="13" font-weight="400" font-style="normal" 
 >Wachdienst</text>
</g>

<g fill="#e3ad00" fill-opacity="1" stroke="#000000" stroke-opacity="1" stroke-width="1" stroke-linecap="square" stroke-linejoin="bevel" transform="matrix(0.994258,0,0,0.994258,550.672,217.26)"
font-family="Helvetica" font-size="13" font-weight="400" font-style="normal" 
>
</g>

<g fill="#e3ad00" fill-opacity="1" stroke="#000000" stroke-opacity="1" stroke-width="1" stroke-linecap="square" stroke-linejoin="bevel" transform="matrix(1,0,0,1,0,0)"
font-family="Helvetica" font-size="13" font-weight="400" font-style="normal" 
>
</g>

<g fill="#e3ad00" fill-opacity="1" stroke="#000000" stroke-opacity="1" stroke-width="1" stroke-linecap="square" stroke-linejoin="bevel" transform="matrix(0.994258,0,0,0.994258,550.672,217.26)"
font-family="Helvetica" font-size="13" font-weight="400" font-style="normal" 
>
</g>

<g fill="none" stroke="#000000" stroke-opacity="1" stroke-width="1" stroke-linecap="square" stroke-linejoin="bevel" transform="matrix(0.994258,0,0,0.994258,550.672,217.26)"
font-family=".Helvetica Neue DeskInterface" font-size="13" font-weight="400" font-style="normal" 
>
</g>

<g fill="none" stroke="#000000" stroke-opacity="1" stroke-width="1" stroke-linecap="square" stroke-linejoin="bevel" transform="matrix(0.994258,0,0,0.994258,704.304,214.61)"
font-family=".Helvetica Neue DeskInterface" font-size="13" font-weight="400" font-style="normal" 
>
</g>

<g fill="none" stroke="#000000" stroke-opacity="1" stroke-width="1" stroke-linecap="square" stroke-linejoin="bevel" transform="matrix(0.994258,0,0,0.994258,704.304,214.61)"
font-family=".Helvetica Neue DeskInterface" font-size="13" font-weight="400" font-style="normal" 
>
</g>

<g fill="none" stroke="#000000" stroke-opacity="1" stroke-width="1" stroke-linecap="square" stroke-linejoin="bevel" transform="matrix(0.994258,0,0,0.994258,704.304,214.61)"
font-family=".Helvetica Neue DeskInterface" font-size="13" font-weight="400" font-style="normal" 
>
</g>

<g fill="none" stroke="#00316e" stroke-opacity="1" stroke-width="1" stroke-linecap="round" stroke-linejoin="round" transform="matrix(0.994258,0,0,0.994258,704.304,214.61)"
font-family=".Helvetica Neue DeskInterface" font-size="13" font-weight="400" font-style="normal" 
>
<path vector-effect="non-scaling-stroke" fill-rule="evenodd" d="M-476.805,3.52941 L-476.805,-66.6687"/>
</g>

<g fill="none" stroke="#000000" stroke-opacity="1" stroke-width="1" stroke-linecap="square" stroke-linejoin="bevel" transform="matrix(0.994258,0,0,0.994258,704.304,214.61)"
font-family=".Helvetica Neue DeskInterface" font-size="13" font-weight="400" font-style="normal" 
>
</g>

<g fill="none" stroke="#000000" stroke-opacity="1" stroke-width="1" stroke-linecap="square" stroke-linejoin="bevel" transform="matrix(0.994258,0,0,0.994258,704.304,214.61)"
font-family=".Helvetica Neue DeskInterface" font-size="13" font-weight="400" font-style="normal" 
>
</g>

<g fill="none" stroke="#000000" stroke-opacity="1" stroke-width="1" stroke-linecap="square" stroke-linejoin="bevel" transform="matrix(0.994258,0,0,0.994258,704.304,214.61)"
font-family=".Helvetica Neue DeskInterface" font-size="13" font-weight="400" font-style="normal" 
>
</g>

<g fill="none" stroke="#000000" stroke-opacity="1" stroke-width="1" stroke-linecap="square" stroke-linejoin="bevel" transform="matrix(0.994258,0,0,0.994258,704.304,214.61)"
font-family=".Helvetica Neue DeskInterface" font-size="13" font-weight="400" font-style="normal" 
>
</g>

<g fill="none" stroke="#00316e" stroke-opacity="1" stroke-width="1" stroke-linecap="round" stroke-linejoin="round" transform="matrix(0.994258,0,0,0.994258,704.304,214.61)"
font-family=".Helvetica Neue DeskInterface" font-size="13" font-weight="400" font-style="normal" 
>
<path vector-effect="non-scaling-stroke" fill-rule="evenodd" d="M-510.588,23.6515 L-549.372,23.6515"/>
</g>

<g fill="none" stroke="#000000" stroke-opacity="1" stroke-width="1" stroke-linecap="square" stroke-linejoin="bevel" transform="matrix(0.994258,0,0,0.994258,704.304,214.61)"
font-family=".Helvetica Neue DeskInterface" font-size="13" font-weight="400" font-style="normal" 
>
</g>

<g fill="none" stroke="#000000" stroke-opacity="1" stroke-width="1" stroke-linecap="square" stroke-linejoin="bevel" transform="matrix(0.994258,0,0,0.994258,704.304,214.61)"
font-family=".Helvetica Neue DeskInterface" font-size="13" font-weight="400" font-style="normal" 
>
</g>

<g fill="none" stroke="#000000" stroke-opacity="1" stroke-width="1" stroke-linecap="square" stroke-linejoin="bevel" transform="matrix(0.994258,0,0,0.994258,704.304,214.61)"
font-family=".Helvetica Neue DeskInterface" font-size="13" font-weight="400" font-style="normal" 
>
</g>

<g fill="none" stroke="#000000" stroke-opacity="1" stroke-width="1" stroke-linecap="square" stroke-linejoin="bevel" transform="matrix(0.994258,0,0,0.994258,704.304,214.61)"
font-family=".Helvetica Neue DeskInterface" font-size="13" font-weight="400" font-style="normal" 
>
</g>

<g fill="none" stroke="#00316e" stroke-opacity="1" stroke-width="1" stroke-linecap="round" stroke-linejoin="round" transform="matrix(0.994258,0,0,0.994258,704.304,214.61)"
font-family=".Helvetica Neue DeskInterface" font-size="13" font-weight="400" font-style="normal" 
>
<path vector-effect="non-scaling-stroke" fill-rule="evenodd" d="M-385.664,-191.823 L-405.68,-191.823"/>
</g>

<g fill="none" stroke="#000000" stroke-opacity="1" stroke-width="1" stroke-linecap="square" stroke-linejoin="bevel" transform="matrix(0.994258,0,0,0.994258,704.304,214.61)"
font-family=".Helvetica Neue DeskInterface" font-size="13" font-weight="400" font-style="normal" 
>
</g>

<g fill="none" stroke="#000000" stroke-opacity="1" stroke-width="1" stroke-linecap="square" stroke-linejoin="bevel" transform="matrix(0.994258,0,0,0.994258,704.304,214.61)"
font-family=".Helvetica Neue DeskInterface" font-size="13" font-weight="400" font-style="normal" 
>
</g>

<g fill="none" stroke="#000000" stroke-opacity="1" stroke-width="1" stroke-linecap="square" stroke-linejoin="bevel" transform="matrix(0.994258,0,0,0.994258,704.304,214.61)"
font-family=".Helvetica Neue DeskInterface" font-size="13" font-weight="400" font-style="normal" 
>
</g>

<g fill="none" stroke="#000000" stroke-opacity="1" stroke-width="1" stroke-linecap="square" stroke-linejoin="bevel" transform="matrix(0.994258,0,0,0.994258,704.304,214.61)"
font-family=".Helvetica Neue DeskInterface" font-size="13" font-weight="400" font-style="normal" 
>
</g>

<g fill="none" stroke="#00316e" stroke-opacity="1" stroke-width="1" stroke-linecap="round" stroke-linejoin="round" transform="matrix(0.994258,0,0,0.994258,704.304,214.61)"
font-family=".Helvetica Neue DeskInterface" font-size="13" font-weight="400" font-style="normal" 
>
<path vector-effect="non-scaling-stroke" fill-rule="evenodd" d="M-299.162,3.75279 L-299.162,-70.5406"/>
</g>

<g fill="none" stroke="#000000" stroke-opacity="1" stroke-width="1" stroke-linecap="square" stroke-linejoin="bevel" transform="matrix(0.994258,0,0,0.994258,704.304,214.61)"
font-family=".Helvetica Neue DeskInterface" font-size="13" font-weight="400" font-style="normal" 
>
</g>

<g fill="none" stroke="#000000" stroke-opacity="1" stroke-width="1" stroke-linecap="square" stroke-linejoin="bevel" transform="matrix(0.994258,0,0,0.994258,704.304,214.61)"
font-family=".Helvetica Neue DeskInterface" font-size="13" font-weight="400" font-style="normal" 
>
</g>

<g fill="none" stroke="#000000" stroke-opacity="1" stroke-width="1" stroke-linecap="square" stroke-linejoin="bevel" transform="matrix(0.994258,0,0,0.994258,704.304,214.61)"
font-family=".Helvetica Neue DeskInterface" font-size="13" font-weight="400" font-style="normal" 
>
</g>

<g fill="none" stroke="#000000" stroke-opacity="1" stroke-width="1" stroke-linecap="square" stroke-linejoin="bevel" transform="matrix(0.994258,0,0,0.994258,704.304,214.61)"
font-family=".Helvetica Neue DeskInterface" font-size="13" font-weight="400" font-style="normal" 
>
</g>

<g fill="none" stroke="#00316e" stroke-opacity="1" stroke-width="1" stroke-linecap="round" stroke-linejoin="round" transform="matrix(0.994258,0,0,0.994258,704.304,214.61)"
font-family=".Helvetica Neue DeskInterface" font-size="13" font-weight="400" font-style="normal" 
>
<path vector-effect="non-scaling-stroke" fill-rule="evenodd" d="M-154.52,60.6657 L-220.557,91.1951"/>
</g>

<g fill="none" stroke="#000000" stroke-opacity="1" stroke-width="1" stroke-linecap="square" stroke-linejoin="bevel" transform="matrix(0.994258,0,0,0.994258,704.304,214.61)"
font-family=".Helvetica Neue DeskInterface" font-size="13" font-weight="400" font-style="normal" 
>
</g>

<g fill="none" stroke="#000000" stroke-opacity="1" stroke-width="1" stroke-linecap="square" stroke-linejoin="bevel" transform="matrix(0.994258,0,0,0.994258,704.304,214.61)"
font-family=".Helvetica Neue DeskInterface" font-size="13" font-weight="400" font-style="normal" 
>
</g>

<g fill="none" stroke="#000000" stroke-opacity="1" stroke-width="1" stroke-linecap="square" stroke-linejoin="bevel" transform="matrix(0.994258,0,0,0.994258,704.304,214.61)"
font-family=".Helvetica Neue DeskInterface" font-size="13" font-weight="400" font-style="normal" 
>
</g>

<g fill="none" stroke="#000000" stroke-opacity="1" stroke-width="1" stroke-linecap="square" stroke-linejoin="bevel" transform="matrix(0.994258,0,0,0.994258,704.304,214.61)"
font-family=".Helvetica Neue DeskInterface" font-size="13" font-weight="400" font-style="normal" 
>
</g>

<g fill="none" stroke="#00316e" stroke-opacity="1" stroke-width="1" stroke-linecap="round" stroke-linejoin="round" transform="matrix(0.994258,0,0,0.994258,704.304,214.61)"
font-family=".Helvetica Neue DeskInterface" font-size="13" font-weight="400" font-style="normal" 
>
<path vector-effect="non-scaling-stroke" fill-rule="evenodd" d="M-248.684,3.75279 L-173.194,-66.2666"/>
</g>

<g fill="none" stroke="#000000" stroke-opacity="1" stroke-width="1" stroke-linecap="square" stroke-linejoin="bevel" transform="matrix(0.994258,0,0,0.994258,704.304,214.61)"
font-family=".Helvetica Neue DeskInterface" font-size="13" font-weight="400" font-style="normal" 
>
</g>

<g fill="none" stroke="#000000" stroke-opacity="1" stroke-width="1" stroke-linecap="square" stroke-linejoin="bevel" transform="matrix(0.994258,0,0,0.994258,704.304,214.61)"
font-family=".Helvetica Neue DeskInterface" font-size="13" font-weight="400" font-style="normal" 
>
</g>

<g fill="none" stroke="#000000" stroke-opacity="1" stroke-width="1" stroke-linecap="square" stroke-linejoin="bevel" transform="matrix(0.994258,0,0,0.994258,704.304,214.61)"
font-family=".Helvetica Neue DeskInterface" font-size="13" font-weight="400" font-style="normal" 
>
</g>

<g fill="none" stroke="#000000" stroke-opacity="1" stroke-width="1" stroke-linecap="square" stroke-linejoin="bevel" transform="matrix(0.994258,0,0,0.994258,704.304,214.61)"
font-family=".Helvetica Neue DeskInterface" font-size="13" font-weight="400" font-style="normal" 
>
</g>

<g fill="none" stroke="#00316e" stroke-opacity="1" stroke-width="1" stroke-linecap="round" stroke-linejoin="round" transform="matrix(0.994258,0,0,0.994258,704.304,214.61)"
font-family=".Helvetica Neue DeskInterface" font-size="13" font-weight="400" font-style="normal" 
>
<path vector-effect="non-scaling-stroke" fill-rule="evenodd" d="M-439.588,61.5294 L-367.557,91.1951"/>
</g>

<g fill="none" stroke="#000000" stroke-opacity="1" stroke-width="1" stroke-linecap="square" stroke-linejoin="bevel" transform="matrix(0.994258,0,0,0.994258,704.304,214.61)"
font-family=".Helvetica Neue DeskInterface" font-size="13" font-weight="400" font-style="normal" 
>
</g>

<g fill="none" stroke="#000000" stroke-opacity="1" stroke-width="1" stroke-linecap="square" stroke-linejoin="bevel" transform="matrix(0.994258,0,0,0.994258,196.648,218.119)"
font-family=".Helvetica Neue DeskInterface" font-size="13" font-weight="400" font-style="normal" 
>
</g>

<g fill="#e3ad00" fill-opacity="1" stroke="#00316e" stroke-opacity="1" stroke-width="1" stroke-linecap="square" stroke-linejoin="bevel" transform="matrix(0.994258,0,0,0.994258,196.648,218.119)"
font-family="Helvetica" font-size="13" font-weight="400" font-style="normal" 
>
<path vector-effect="non-scaling-stroke" fill-rule="evenodd" d="M45,6.5 C45,10.0899 40.5228,13 35,13 C29.4772,13 25,10.0899 25,6.5 C25,2.91015 29.4772,0 35,0 C40.5228,0 45,2.91015 45,6.5 "/>
<polyline fill="none" vector-effect="non-scaling-stroke" points="35,13 35,26 " />
<polyline fill="none" vector-effect="non-scaling-stroke" points="35,26 25,40 " />
<polyline fill="none" vector-effect="non-scaling-stroke" points="35,26 45,40 " />
<polyline fill="none" vector-effect="non-scaling-stroke" points="25,19 45,19 " />
</g>

<g fill="#e3ad00" fill-opacity="1" stroke="#000000" stroke-opacity="1" stroke-width="1" stroke-linecap="square" stroke-linejoin="bevel" transform="matrix(0.994258,0,0,0.994258,196.648,218.119)"
font-family="Helvetica" font-size="13" font-weight="400" font-style="normal" 
>
</g>

<g fill="#e3ad00" fill-opacity="1" stroke="#000000" stroke-opacity="1" stroke-width="1" stroke-linecap="square" stroke-linejoin="bevel" transform="matrix(0.994258,0,0,0.994258,196.648,218.119)"
font-family="Helvetica" font-size="13" font-weight="400" font-style="normal" 
>
<text fill="#000000" fill-opacity="1" stroke="none" xml:space="preserve" x="4.82812" y="55" font-family="Helvetica" font-size="13" font-weight="400" font-style="normal" 
 >Mitarbeiter</text>
</g>

<g fill="#e3ad00" fill-opacity="1" stroke="#000000" stroke-opacity="1" stroke-width="1" stroke-linecap="square" stroke-linejoin="bevel" transform="matrix(0.994258,0,0,0.994258,196.648,218.119)"
font-family="Helvetica" font-size="13" font-weight="400" font-style="normal" 
>
</g>

<g fill="#e3ad00" fill-opacity="1" stroke="#000000" stroke-opacity="1" stroke-width="1" stroke-linecap="square" stroke-linejoin="bevel" transform="matrix(1,0,0,1,0,0)"
font-family="Helvetica" font-size="13" font-weight="400" font-style="normal" 
>
</g>

<g fill="#e3ad00" fill-opacity="1" stroke="#000000" stroke-opacity="1" stroke-width="1" stroke-linecap="square" stroke-linejoin="bevel" transform="matrix(0.994258,0,0,0.994258,196.648,218.119)"
font-family="Helvetica" font-size="13" font-weight="400" font-style="normal" 
>
</g>

<g fill="none" stroke="#000000" stroke-opacity="1" stroke-width="1" stroke-linecap="square" stroke-linejoin="bevel" transform="matrix(0.994258,0,0,0.994258,196.648,218.119)"
font-family=".Helvetica Neue DeskInterface" font-size="13" font-weight="400" font-style="normal" 
>
</g>

<g fill="none" stroke="#000000" stroke-opacity="1" stroke-width="1" stroke-linecap="square" stroke-linejoin="bevel" transform="matrix(1,0,0,1,0,0)"
font-family=".Helvetica Neue DeskInterface" font-size="13" font-weight="400" font-style="normal" 
>
</g>
</g>
</svg>
