<?xml version="1.0" encoding="UTF-8" standalone="no"?>
<svg width="215.194mm" height="74.0833mm"
 viewBox="0 0 610 210"
 xmlns="http://www.w3.org/2000/svg" xmlns:xlink="http://www.w3.org/1999/xlink"  version="1.2" baseProfile="tiny">
<title>Qt Svg Document</title>
<desc>Generated with Qt</desc>
<defs>
</defs>
<g fill="none" stroke="black" stroke-width="1" fill-rule="evenodd" stroke-linecap="square" stroke-linejoin="bevel" >

<g fill="none" stroke="#000000" stroke-opacity="1" stroke-width="1" stroke-linecap="square" stroke-linejoin="bevel" transform="matrix(1,0,0,1,0,0)"
font-family=".Helvetica Neue DeskInterface" font-size="13" font-weight="400" font-style="normal" 
>
</g>

<g fill="none" stroke="#000000" stroke-opacity="1" stroke-width="1" stroke-linecap="square" stroke-linejoin="bevel" transform="matrix(1,0,0,1,0,0)"
font-family=".Helvetica Neue DeskInterface" font-size="13" font-weight="400" font-style="normal" 
>
</g>

<g fill="none" stroke="#000000" stroke-opacity="1" stroke-width="1" stroke-linecap="square" stroke-linejoin="bevel" transform="matrix(0.990566,0,0,0.990566,124.811,45.566)"
font-family=".Helvetica Neue DeskInterface" font-size="13" font-weight="400" font-style="normal" 
>
</g>

<g fill="#00316e" fill-opacity="1" stroke="#00316e" stroke-opacity="1" stroke-width="1" stroke-linecap="square" stroke-linejoin="bevel" transform="matrix(0.990566,0,0,0.990566,124.811,45.566)"
font-family=".Helvetica Neue DeskInterface" font-size="13" font-weight="400" font-style="normal" 
>
<path vector-effect="none" fill-rule="evenodd" d="M15,7.5 C15,11.6421 11.6421,15 7.5,15 C3.35786,15 0,11.6421 0,7.5 C0,3.35786 3.35786,0 7.5,0 C11.6421,0 15,3.35786 15,7.5 "/>
</g>

<g fill="none" stroke="#000000" stroke-opacity="1" stroke-width="1" stroke-linecap="square" stroke-linejoin="bevel" transform="matrix(0.990566,0,0,0.990566,124.811,45.566)"
font-family=".Helvetica Neue DeskInterface" font-size="13" font-weight="400" font-style="normal" 
>
</g>

<g fill="none" stroke="#000000" stroke-opacity="1" stroke-width="1" stroke-linecap="square" stroke-linejoin="bevel" transform="matrix(0.990566,0,0,0.990566,253.585,40.6132)"
font-family=".Helvetica Neue DeskInterface" font-size="13" font-weight="400" font-style="normal" 
>
</g>

<g fill="#e3ad00" fill-opacity="1" stroke="#00316e" stroke-opacity="1" stroke-width="1" stroke-linecap="square" stroke-linejoin="bevel" transform="matrix(0.990566,0,0,0.990566,253.585,40.6132)"
font-family=".Helvetica Neue DeskInterface" font-size="13" font-weight="400" font-style="normal" 
>
<path vector-effect="non-scaling-stroke" fill-rule="evenodd" d="M0,7.5 C0,3.35786 3.20116,0 7.15,0 L102.85,0 C106.799,0 110,3.35786 110,7.5 L110,17.5 C110,21.6421 106.799,25 102.85,25 L7.15,25 C3.20116,25 0,21.6421 0,17.5 L0,7.5"/>
</g>

<g fill="#e3ad00" fill-opacity="1" stroke="#000000" stroke-opacity="1" stroke-width="1" stroke-linecap="square" stroke-linejoin="bevel" transform="matrix(0.990566,0,0,0.990566,253.585,40.6132)"
font-family="Helvetica" font-size="13" font-weight="400" font-style="normal" 
>
<text fill="#000000" fill-opacity="1" stroke="none" xml:space="preserve" x="10.6094" y="16" font-family="Helvetica" font-size="13" font-weight="400" font-style="normal" 
 >Urlaubswunsch</text>
</g>

<g fill="none" stroke="#000000" stroke-opacity="1" stroke-width="1" stroke-linecap="square" stroke-linejoin="bevel" transform="matrix(0.990566,0,0,0.990566,253.585,40.6132)"
font-family=".Helvetica Neue DeskInterface" font-size="13" font-weight="400" font-style="normal" 
>
</g>

<g fill="none" stroke="#000000" stroke-opacity="1" stroke-width="1" stroke-linecap="square" stroke-linejoin="bevel" transform="matrix(0.990566,0,0,0.990566,451.698,30.7075)"
font-family=".Helvetica Neue DeskInterface" font-size="13" font-weight="400" font-style="normal" 
>
</g>

<g fill="#e3ad00" fill-opacity="1" stroke="#00316e" stroke-opacity="1" stroke-width="1" stroke-linecap="square" stroke-linejoin="bevel" transform="matrix(0.990566,0,0,0.990566,451.698,30.7075)"
font-family=".Helvetica Neue DeskInterface" font-size="13" font-weight="400" font-style="normal" 
>
<path vector-effect="non-scaling-stroke" fill-rule="evenodd" d="M0,0 L105,0 L105,50 L0,50 L0,0"/>
</g>

<g fill="#e3ad00" fill-opacity="1" stroke="#00316e" stroke-opacity="1" stroke-width="1" stroke-linecap="square" stroke-linejoin="bevel" transform="matrix(0.990566,0,0,0.990566,451.698,30.7075)"
font-family="Helvetica" font-size="13" font-weight="400" font-style="normal" 
>
<polyline fill="none" vector-effect="non-scaling-stroke" points="10,25 95,25 " />
</g>

<g fill="#e3ad00" fill-opacity="1" stroke="#000000" stroke-opacity="1" stroke-width="1" stroke-linecap="square" stroke-linejoin="bevel" transform="matrix(0.990566,0,0,0.990566,451.698,30.7075)"
font-family="Helvetica" font-size="13" font-weight="400" font-style="normal" 
>
<text fill="#000000" fill-opacity="1" stroke="none" xml:space="preserve" x="33.375" y="14" font-family="Helvetica" font-size="13" font-weight="400" font-style="normal" 
 >Urlaub</text>
<text fill="#000000" fill-opacity="1" stroke="none" xml:space="preserve" x="34.5625" y="43" font-family="Helvetica" font-size="13" font-weight="400" font-style="normal" 
 >[offen]</text>
</g>

<g fill="none" stroke="#000000" stroke-opacity="1" stroke-width="1" stroke-linecap="square" stroke-linejoin="bevel" transform="matrix(0.990566,0,0,0.990566,451.698,30.7075)"
font-family=".Helvetica Neue DeskInterface" font-size="13" font-weight="400" font-style="normal" 
>
</g>

<g fill="none" stroke="#000000" stroke-opacity="1" stroke-width="1" stroke-linecap="square" stroke-linejoin="bevel" transform="matrix(0.990566,0,0,0.990566,441.792,154.528)"
font-family=".Helvetica Neue DeskInterface" font-size="13" font-weight="400" font-style="normal" 
>
</g>

<g fill="#e3ad00" fill-opacity="1" stroke="#00316e" stroke-opacity="1" stroke-width="1" stroke-linecap="square" stroke-linejoin="bevel" transform="matrix(0.990566,0,0,0.990566,441.792,154.528)"
font-family=".Helvetica Neue DeskInterface" font-size="13" font-weight="400" font-style="normal" 
>
<path vector-effect="non-scaling-stroke" fill-rule="evenodd" d="M0,7.5 C0,3.35786 3.20116,0 7.15,0 L122.85,0 C126.799,0 130,3.35786 130,7.5 L130,17.5 C130,21.6421 126.799,25 122.85,25 L7.15,25 C3.20116,25 0,21.6421 0,17.5 L0,7.5"/>
</g>

<g fill="#e3ad00" fill-opacity="1" stroke="#000000" stroke-opacity="1" stroke-width="1" stroke-linecap="square" stroke-linejoin="bevel" transform="matrix(0.990566,0,0,0.990566,441.792,154.528)"
font-family="Helvetica" font-size="13" font-weight="400" font-style="normal" 
>
<text fill="#000000" fill-opacity="1" stroke="none" xml:space="preserve" x="15.9219" y="16" font-family="Helvetica" font-size="13" font-weight="400" font-style="normal" 
 >Urlaub speichern</text>
</g>

<g fill="none" stroke="#000000" stroke-opacity="1" stroke-width="1" stroke-linecap="square" stroke-linejoin="bevel" transform="matrix(0.990566,0,0,0.990566,441.792,154.528)"
font-family=".Helvetica Neue DeskInterface" font-size="13" font-weight="400" font-style="normal" 
>
</g>

<g fill="none" stroke="#000000" stroke-opacity="1" stroke-width="1" stroke-linecap="square" stroke-linejoin="bevel" transform="matrix(0.990566,0,0,0.990566,491.321,179.292)"
font-family=".Helvetica Neue DeskInterface" font-size="13" font-weight="400" font-style="normal" 
>
</g>

<g fill="none" stroke="#000000" stroke-opacity="1" stroke-width="1" stroke-linecap="square" stroke-linejoin="bevel" transform="matrix(0.990566,0,0,0.990566,491.321,179.292)"
font-family=".Helvetica Neue DeskInterface" font-size="13" font-weight="400" font-style="normal" 
>
</g>

<g fill="none" stroke="#000000" stroke-opacity="1" stroke-width="1" stroke-linecap="square" stroke-linejoin="bevel" transform="matrix(3.29925e-16,-0.990566,0.990566,3.29925e-16,243.679,55.4717)"
font-family=".Helvetica Neue DeskInterface" font-size="13" font-weight="400" font-style="normal" 
>
</g>

<g fill="none" stroke="#00316e" stroke-opacity="1" stroke-width="1" stroke-linecap="round" stroke-linejoin="round" transform="matrix(3.29925e-16,-0.990566,0.990566,3.29925e-16,243.679,55.4717)"
font-family=".Helvetica Neue DeskInterface" font-size="13" font-weight="400" font-style="normal" 
>
<path vector-effect="non-scaling-stroke" fill-rule="evenodd" d="M-6,0 L0,10 L6,0"/>
</g>

<g fill="none" stroke="#000000" stroke-opacity="1" stroke-width="1" stroke-linecap="square" stroke-linejoin="bevel" transform="matrix(3.29925e-16,-0.990566,0.990566,3.29925e-16,243.679,55.4717)"
font-family=".Helvetica Neue DeskInterface" font-size="13" font-weight="400" font-style="normal" 
>
</g>

<g fill="none" stroke="#000000" stroke-opacity="1" stroke-width="1" stroke-linecap="square" stroke-linejoin="bevel" transform="matrix(0.990566,0,0,0.990566,491.321,179.292)"
font-family=".Helvetica Neue DeskInterface" font-size="13" font-weight="400" font-style="normal" 
>
</g>

<g fill="none" stroke="#00316e" stroke-opacity="1" stroke-width="1" stroke-linecap="round" stroke-linejoin="round" transform="matrix(0.990566,0,0,0.990566,491.321,179.292)"
font-family=".Helvetica Neue DeskInterface" font-size="13" font-weight="400" font-style="normal" 
>
<path vector-effect="non-scaling-stroke" fill-rule="evenodd" d="M-355,-125 L-240,-125"/>
</g>

<g fill="none" stroke="#000000" stroke-opacity="1" stroke-width="1" stroke-linecap="square" stroke-linejoin="bevel" transform="matrix(0.990566,0,0,0.990566,491.321,179.292)"
font-family=".Helvetica Neue DeskInterface" font-size="13" font-weight="400" font-style="normal" 
>
</g>

<g fill="none" stroke="#000000" stroke-opacity="1" stroke-width="1" stroke-linecap="square" stroke-linejoin="bevel" transform="matrix(0.990566,0,0,0.990566,491.321,179.292)"
font-family=".Helvetica Neue DeskInterface" font-size="13" font-weight="400" font-style="normal" 
>
</g>

<g fill="none" stroke="#000000" stroke-opacity="1" stroke-width="1" stroke-linecap="square" stroke-linejoin="bevel" transform="matrix(0.990566,0,0,0.990566,491.321,179.292)"
font-family=".Helvetica Neue DeskInterface" font-size="13" font-weight="400" font-style="normal" 
>
</g>

<g fill="none" stroke="#000000" stroke-opacity="1" stroke-width="1" stroke-linecap="square" stroke-linejoin="bevel" transform="matrix(2.13076e-16,-0.990566,0.990566,2.13076e-16,441.792,55.4717)"
font-family=".Helvetica Neue DeskInterface" font-size="13" font-weight="400" font-style="normal" 
>
</g>

<g fill="none" stroke="#00316e" stroke-opacity="1" stroke-width="1" stroke-linecap="round" stroke-linejoin="round" transform="matrix(2.13076e-16,-0.990566,0.990566,2.13076e-16,441.792,55.4717)"
font-family=".Helvetica Neue DeskInterface" font-size="13" font-weight="400" font-style="normal" 
>
<path vector-effect="non-scaling-stroke" fill-rule="evenodd" d="M-6,0 L0,10 L6,0"/>
</g>

<g fill="none" stroke="#000000" stroke-opacity="1" stroke-width="1" stroke-linecap="square" stroke-linejoin="bevel" transform="matrix(2.13076e-16,-0.990566,0.990566,2.13076e-16,441.792,55.4717)"
font-family=".Helvetica Neue DeskInterface" font-size="13" font-weight="400" font-style="normal" 
>
</g>

<g fill="none" stroke="#000000" stroke-opacity="1" stroke-width="1" stroke-linecap="square" stroke-linejoin="bevel" transform="matrix(0.990566,0,0,0.990566,491.321,179.292)"
font-family=".Helvetica Neue DeskInterface" font-size="13" font-weight="400" font-style="normal" 
>
</g>

<g fill="none" stroke="#00316e" stroke-opacity="1" stroke-width="1" stroke-linecap="round" stroke-linejoin="round" transform="matrix(0.990566,0,0,0.990566,491.321,179.292)"
font-family=".Helvetica Neue DeskInterface" font-size="13" font-weight="400" font-style="normal" 
>
<path vector-effect="non-scaling-stroke" fill-rule="evenodd" d="M-130,-125 L-40,-125"/>
</g>

<g fill="none" stroke="#000000" stroke-opacity="1" stroke-width="1" stroke-linecap="square" stroke-linejoin="bevel" transform="matrix(0.990566,0,0,0.990566,491.321,179.292)"
font-family=".Helvetica Neue DeskInterface" font-size="13" font-weight="400" font-style="normal" 
>
</g>

<g fill="none" stroke="#000000" stroke-opacity="1" stroke-width="1" stroke-linecap="square" stroke-linejoin="bevel" transform="matrix(0.990566,0,0,0.990566,491.321,179.292)"
font-family=".Helvetica Neue DeskInterface" font-size="13" font-weight="400" font-style="normal" 
>
</g>

<g fill="none" stroke="#000000" stroke-opacity="1" stroke-width="1" stroke-linecap="square" stroke-linejoin="bevel" transform="matrix(0.990566,0,0,0.990566,491.321,179.292)"
font-family=".Helvetica Neue DeskInterface" font-size="13" font-weight="400" font-style="normal" 
>
</g>

<g fill="none" stroke="#000000" stroke-opacity="1" stroke-width="1" stroke-linecap="square" stroke-linejoin="bevel" transform="matrix(0.990566,0,0,0.990566,501.226,144.623)"
font-family=".Helvetica Neue DeskInterface" font-size="13" font-weight="400" font-style="normal" 
>
</g>

<g fill="none" stroke="#00316e" stroke-opacity="1" stroke-width="1" stroke-linecap="round" stroke-linejoin="round" transform="matrix(0.990566,0,0,0.990566,501.226,144.623)"
font-family=".Helvetica Neue DeskInterface" font-size="13" font-weight="400" font-style="normal" 
>
<path vector-effect="non-scaling-stroke" fill-rule="evenodd" d="M-6,0 L0,10 L6,0"/>
</g>

<g fill="none" stroke="#000000" stroke-opacity="1" stroke-width="1" stroke-linecap="square" stroke-linejoin="bevel" transform="matrix(0.990566,0,0,0.990566,501.226,144.623)"
font-family=".Helvetica Neue DeskInterface" font-size="13" font-weight="400" font-style="normal" 
>
</g>

<g fill="none" stroke="#000000" stroke-opacity="1" stroke-width="1" stroke-linecap="square" stroke-linejoin="bevel" transform="matrix(0.990566,0,0,0.990566,491.321,179.292)"
font-family=".Helvetica Neue DeskInterface" font-size="13" font-weight="400" font-style="normal" 
>
</g>

<g fill="none" stroke="#00316e" stroke-opacity="1" stroke-width="1" stroke-linecap="round" stroke-linejoin="round" transform="matrix(0.990566,0,0,0.990566,491.321,179.292)"
font-family=".Helvetica Neue DeskInterface" font-size="13" font-weight="400" font-style="normal" 
>
<path vector-effect="non-scaling-stroke" fill-rule="evenodd" d="M10,-100 L10,-25"/>
</g>

<g fill="none" stroke="#000000" stroke-opacity="1" stroke-width="1" stroke-linecap="square" stroke-linejoin="bevel" transform="matrix(0.990566,0,0,0.990566,491.321,179.292)"
font-family=".Helvetica Neue DeskInterface" font-size="13" font-weight="400" font-style="normal" 
>
</g>

<g fill="none" stroke="#000000" stroke-opacity="1" stroke-width="1" stroke-linecap="square" stroke-linejoin="bevel" transform="matrix(0.990566,0,0,0.990566,357.594,159.481)"
font-family=".Helvetica Neue DeskInterface" font-size="13" font-weight="400" font-style="normal" 
>
</g>

<g fill="#00316e" fill-opacity="1" stroke="#00316e" stroke-opacity="1" stroke-width="1" stroke-linecap="square" stroke-linejoin="bevel" transform="matrix(0.990566,0,0,0.990566,357.594,159.481)"
font-family=".Helvetica Neue DeskInterface" font-size="13" font-weight="400" font-style="normal" 
>
<path vector-effect="none" fill-rule="evenodd" d="M15,7.5 C15,11.6421 11.6421,15 7.5,15 C3.35786,15 0,11.6421 0,7.5 C0,3.35786 3.35786,0 7.5,0 C11.6421,0 15,3.35786 15,7.5 "/>
</g>

<g fill="#ffffff" fill-opacity="1" stroke="#00316e" stroke-opacity="1" stroke-width="1" stroke-linecap="square" stroke-linejoin="bevel" transform="matrix(0.990566,0,0,0.990566,357.594,159.481)"
font-family=".Helvetica Neue DeskInterface" font-size="13" font-weight="400" font-style="normal" 
>
<path vector-effect="none" fill-rule="evenodd" d="M14,7.5 C14,11.0899 11.0899,14 7.5,14 C3.91015,14 1,11.0899 1,7.5 C1,3.91015 3.91015,1 7.5,1 C11.0899,1 14,3.91015 14,7.5 "/>
</g>

<g fill="#00316e" fill-opacity="1" stroke="#00316e" stroke-opacity="1" stroke-width="1" stroke-linecap="square" stroke-linejoin="bevel" transform="matrix(0.990566,0,0,0.990566,357.594,159.481)"
font-family=".Helvetica Neue DeskInterface" font-size="13" font-weight="400" font-style="normal" 
>
<path vector-effect="none" fill-rule="evenodd" d="M12,7.5 C12,9.98528 9.98528,12 7.5,12 C5.01472,12 3,9.98528 3,7.5 C3,5.01472 5.01472,3 7.5,3 C9.98528,3 12,5.01472 12,7.5 "/>
</g>

<g fill="none" stroke="#000000" stroke-opacity="1" stroke-width="1" stroke-linecap="square" stroke-linejoin="bevel" transform="matrix(0.990566,0,0,0.990566,357.594,159.481)"
font-family=".Helvetica Neue DeskInterface" font-size="13" font-weight="400" font-style="normal" 
>
</g>

<g fill="none" stroke="#000000" stroke-opacity="1" stroke-width="1" stroke-linecap="square" stroke-linejoin="bevel" transform="matrix(0.990566,0,0,0.990566,491.321,179.292)"
font-family=".Helvetica Neue DeskInterface" font-size="13" font-weight="400" font-style="normal" 
>
</g>

<g fill="none" stroke="#000000" stroke-opacity="1" stroke-width="1" stroke-linecap="square" stroke-linejoin="bevel" transform="matrix(0.990566,0,0,0.990566,491.321,179.292)"
font-family=".Helvetica Neue DeskInterface" font-size="13" font-weight="400" font-style="normal" 
>
</g>

<g fill="none" stroke="#000000" stroke-opacity="1" stroke-width="1" stroke-linecap="square" stroke-linejoin="bevel" transform="matrix(2.33697e-16,0.990566,-0.990566,2.33697e-16,382.358,169.387)"
font-family=".Helvetica Neue DeskInterface" font-size="13" font-weight="400" font-style="normal" 
>
</g>

<g fill="none" stroke="#00316e" stroke-opacity="1" stroke-width="1" stroke-linecap="round" stroke-linejoin="round" transform="matrix(2.33697e-16,0.990566,-0.990566,2.33697e-16,382.358,169.387)"
font-family=".Helvetica Neue DeskInterface" font-size="13" font-weight="400" font-style="normal" 
>
<path vector-effect="non-scaling-stroke" fill-rule="evenodd" d="M-6,0 L0,10 L6,0"/>
</g>

<g fill="none" stroke="#000000" stroke-opacity="1" stroke-width="1" stroke-linecap="square" stroke-linejoin="bevel" transform="matrix(2.33697e-16,0.990566,-0.990566,2.33697e-16,382.358,169.387)"
font-family=".Helvetica Neue DeskInterface" font-size="13" font-weight="400" font-style="normal" 
>
</g>

<g fill="none" stroke="#000000" stroke-opacity="1" stroke-width="1" stroke-linecap="square" stroke-linejoin="bevel" transform="matrix(0.990566,0,0,0.990566,491.321,179.292)"
font-family=".Helvetica Neue DeskInterface" font-size="13" font-weight="400" font-style="normal" 
>
</g>

<g fill="none" stroke="#00316e" stroke-opacity="1" stroke-width="1" stroke-linecap="round" stroke-linejoin="round" transform="matrix(0.990566,0,0,0.990566,491.321,179.292)"
font-family=".Helvetica Neue DeskInterface" font-size="13" font-weight="400" font-style="normal" 
>
<path vector-effect="non-scaling-stroke" fill-rule="evenodd" d="M-50,-10 L-120,-10"/>
</g>

<g fill="none" stroke="#000000" stroke-opacity="1" stroke-width="1" stroke-linecap="square" stroke-linejoin="bevel" transform="matrix(0.990566,0,0,0.990566,491.321,179.292)"
font-family=".Helvetica Neue DeskInterface" font-size="13" font-weight="400" font-style="normal" 
>
</g>

<g fill="none" stroke="#000000" stroke-opacity="1" stroke-width="1" stroke-linecap="square" stroke-linejoin="bevel" transform="matrix(0.990566,0,0,0.990566,0.990566,0.990566)"
font-family=".Helvetica Neue DeskInterface" font-size="13" font-weight="400" font-style="normal" 
>
</g>

<g fill="none" stroke="#ff0000" stroke-opacity="1" stroke-dasharray="4,2" stroke-dashoffset="0" stroke-width="1" stroke-linecap="square" stroke-linejoin="bevel" transform="matrix(0.990566,0,0,0.990566,0.990566,0.990566)"
font-family=".Helvetica Neue DeskInterface" font-size="13" font-weight="400" font-style="normal" 
>
<path vector-effect="non-scaling-stroke" fill-rule="evenodd" d="M0,30 C0,13.4315 12.2898,0 27.45,0 L582.55,0 C597.71,0 610,13.4315 610,30 L610,70 C610,86.5685 597.71,100 582.55,100 L27.45,100 C12.2898,100 0,86.5685 0,70 L0,30"/>
</g>

<g fill="none" stroke="#000000" stroke-opacity="1" stroke-width="1" stroke-linecap="square" stroke-linejoin="bevel" transform="matrix(0.990566,0,0,0.990566,0.990566,0.990566)"
font-family=".Helvetica Neue DeskInterface" font-size="13" font-weight="400" font-style="normal" 
>
</g>

<g fill="none" stroke="#000000" stroke-opacity="1" stroke-width="1" stroke-linecap="square" stroke-linejoin="bevel" transform="matrix(0.990566,0,0,0.990566,25.7547,40.6132)"
font-family=".Helvetica Neue DeskInterface" font-size="13" font-weight="400" font-style="normal" 
>
</g>

<g fill="none" stroke="#000000" stroke-opacity="1" stroke-width="1" stroke-linecap="square" stroke-linejoin="bevel" transform="matrix(0.990566,0,0,0.990566,25.7547,40.6132)"
font-family="Helvetica" font-size="13" font-weight="400" font-style="normal" 
>
<text fill="#000000" fill-opacity="1" stroke="none" xml:space="preserve" x="4.32812" y="13.0156" font-family="Helvetica" font-size="13" font-weight="400" font-style="normal" 
 >Mitarbeiter</text>
</g>

<g fill="none" stroke="#000000" stroke-opacity="1" stroke-width="1" stroke-linecap="square" stroke-linejoin="bevel" transform="matrix(0.990566,0,0,0.990566,25.7547,40.6132)"
font-family=".Helvetica Neue DeskInterface" font-size="13" font-weight="400" font-style="normal" 
>
</g>

<g fill="none" stroke="#000000" stroke-opacity="1" stroke-width="1" stroke-linecap="square" stroke-linejoin="bevel" transform="matrix(0.990566,0,0,0.990566,0.990566,109.953)"
font-family=".Helvetica Neue DeskInterface" font-size="13" font-weight="400" font-style="normal" 
>
</g>

<g fill="none" stroke="#ff0000" stroke-opacity="1" stroke-dasharray="4,2" stroke-dashoffset="0" stroke-width="1" stroke-linecap="square" stroke-linejoin="bevel" transform="matrix(0.990566,0,0,0.990566,0.990566,109.953)"
font-family=".Helvetica Neue DeskInterface" font-size="13" font-weight="400" font-style="normal" 
>
<path vector-effect="non-scaling-stroke" fill-rule="evenodd" d="M0,30 C0,13.4315 12.2898,0 27.45,0 L582.55,0 C597.71,0 610,13.4315 610,30 L610,70 C610,86.5685 597.71,100 582.55,100 L27.45,100 C12.2898,100 0,86.5685 0,70 L0,30"/>
</g>

<g fill="none" stroke="#000000" stroke-opacity="1" stroke-width="1" stroke-linecap="square" stroke-linejoin="bevel" transform="matrix(0.990566,0,0,0.990566,0.990566,109.953)"
font-family=".Helvetica Neue DeskInterface" font-size="13" font-weight="400" font-style="normal" 
>
</g>

<g fill="none" stroke="#000000" stroke-opacity="1" stroke-width="1" stroke-linecap="square" stroke-linejoin="bevel" transform="matrix(0.990566,0,0,0.990566,25.7547,40.6132)"
font-family=".Helvetica Neue DeskInterface" font-size="13" font-weight="400" font-style="normal" 
>
</g>

<g fill="none" stroke="#000000" stroke-opacity="1" stroke-width="1" stroke-linecap="square" stroke-linejoin="bevel" transform="matrix(0.990566,0,0,0.990566,25.7547,40.6132)"
font-family="Helvetica" font-size="13" font-weight="400" font-style="normal" 
>
<text fill="#000000" fill-opacity="1" stroke="none" xml:space="preserve" x="4.32812" y="13.0156" font-family="Helvetica" font-size="13" font-weight="400" font-style="normal" 
 >Mitarbeiter</text>
</g>

<g fill="none" stroke="#000000" stroke-opacity="1" stroke-width="1" stroke-linecap="square" stroke-linejoin="bevel" transform="matrix(0.990566,0,0,0.990566,25.7547,40.6132)"
font-family=".Helvetica Neue DeskInterface" font-size="13" font-weight="400" font-style="normal" 
>
</g>

<g fill="none" stroke="#000000" stroke-opacity="1" stroke-width="1" stroke-linecap="square" stroke-linejoin="bevel" transform="matrix(0.990566,0,0,0.990566,30.7075,149.575)"
font-family=".Helvetica Neue DeskInterface" font-size="13" font-weight="400" font-style="normal" 
>
</g>

<g fill="none" stroke="#000000" stroke-opacity="1" stroke-width="1" stroke-linecap="square" stroke-linejoin="bevel" transform="matrix(0.990566,0,0,0.990566,30.7075,149.575)"
font-family="Helvetica" font-size="13" font-weight="400" font-style="normal" 
>
<text fill="#000000" fill-opacity="1" stroke="none" xml:space="preserve" x="6.09375" y="13.0156" font-family="Helvetica" font-size="13" font-weight="400" font-style="normal" 
 >Datenbank</text>
</g>

<g fill="none" stroke="#000000" stroke-opacity="1" stroke-width="1" stroke-linecap="square" stroke-linejoin="bevel" transform="matrix(0.990566,0,0,0.990566,30.7075,149.575)"
font-family=".Helvetica Neue DeskInterface" font-size="13" font-weight="400" font-style="normal" 
>
</g>

<g fill="none" stroke="#000000" stroke-opacity="1" stroke-width="1" stroke-linecap="square" stroke-linejoin="bevel" transform="matrix(1,0,0,1,0,0)"
font-family=".Helvetica Neue DeskInterface" font-size="13" font-weight="400" font-style="normal" 
>
</g>
</g>
</svg>
