<?xml version="1.0" encoding="UTF-8" standalone="no"?>
<svg width="281.869mm" height="134.408mm"
 viewBox="0 0 799 381"
 xmlns="http://www.w3.org/2000/svg" xmlns:xlink="http://www.w3.org/1999/xlink"  version="1.2" baseProfile="tiny">
<title>Qt Svg Document</title>
<desc>Generated with Qt</desc>
<defs>
</defs>
<g fill="none" stroke="black" stroke-width="1" fill-rule="evenodd" stroke-linecap="square" stroke-linejoin="bevel" >

<g fill="none" stroke="#000000" stroke-opacity="1" stroke-width="1" stroke-linecap="square" stroke-linejoin="bevel" transform="matrix(1,0,0,1,0,0)"
font-family=".Helvetica Neue DeskInterface" font-size="13" font-weight="400" font-style="normal" 
>
</g>

<g fill="none" stroke="#000000" stroke-opacity="1" stroke-width="1" stroke-linecap="square" stroke-linejoin="bevel" transform="matrix(1,0,0,1,0,0)"
font-family=".Helvetica Neue DeskInterface" font-size="13" font-weight="400" font-style="normal" 
>
</g>

<g fill="none" stroke="#000000" stroke-opacity="1" stroke-width="1" stroke-linecap="square" stroke-linejoin="bevel" transform="matrix(0.994778,0,0,0.994778,20.8903,309.376)"
font-family=".Helvetica Neue DeskInterface" font-size="13" font-weight="400" font-style="normal" 
>
</g>

<g fill="#e3ad00" fill-opacity="1" stroke="#00316e" stroke-opacity="1" stroke-width="1" stroke-linecap="square" stroke-linejoin="bevel" transform="matrix(0.994778,0,0,0.994778,20.8903,309.376)"
font-family="Helvetica" font-size="15" font-weight="400" font-style="italic" 
>
<path vector-effect="non-scaling-stroke" fill-rule="evenodd" d="M214,25.5 C214,39.5833 166.094,51 107,51 C47.9055,51 0,39.5833 0,25.5 C0,11.4167 47.9055,0 107,0 C166.094,0 214,11.4167 214,25.5 "/>
</g>

<g fill="#e3ad00" fill-opacity="1" stroke="#000000" stroke-opacity="1" stroke-width="1" stroke-linecap="square" stroke-linejoin="bevel" transform="matrix(0.994778,0,0,0.994778,20.8903,309.376)"
font-family="Helvetica" font-size="15" font-weight="400" font-style="italic" 
>
<text fill="#000000" fill-opacity="1" stroke="none" xml:space="preserve" x="38.3125" y="29.5469" font-family="Helvetica" font-size="15" font-weight="400" font-style="italic" 
 >Urlaub planen (Abs.)</text>
</g>

<g fill="none" stroke="#000000" stroke-opacity="1" stroke-width="1" stroke-linecap="square" stroke-linejoin="bevel" transform="matrix(0.994778,0,0,0.994778,20.8903,309.376)"
font-family=".Helvetica Neue DeskInterface" font-size="13" font-weight="400" font-style="normal" 
>
</g>

<g fill="none" stroke="#000000" stroke-opacity="1" stroke-width="1" stroke-linecap="square" stroke-linejoin="bevel" transform="matrix(0.994778,0,0,0.994778,836.608,319.324)"
font-family=".Helvetica Neue DeskInterface" font-size="13" font-weight="400" font-style="normal" 
>
</g>

<g fill="none" stroke="#000000" stroke-opacity="1" stroke-width="1" stroke-linecap="square" stroke-linejoin="bevel" transform="matrix(0.994778,0,0,0.994778,836.608,319.324)"
font-family=".Helvetica Neue DeskInterface" font-size="13" font-weight="400" font-style="normal" 
>
</g>

<g fill="none" stroke="#000000" stroke-opacity="1" stroke-width="1" stroke-linecap="square" stroke-linejoin="bevel" transform="matrix(0,-0.994778,0.994778,0,289.48,20.8903)"
font-family=".Helvetica Neue DeskInterface" font-size="13" font-weight="400" font-style="normal" 
>
</g>

<g fill="#ffffff" fill-opacity="1" stroke="#00316e" stroke-opacity="1" stroke-width="1" stroke-linecap="round" stroke-linejoin="round" transform="matrix(0,-0.994778,0.994778,0,289.48,20.8903)"
font-family=".Helvetica Neue DeskInterface" font-size="13" font-weight="400" font-style="normal" 
>
<path vector-effect="non-scaling-stroke" fill-rule="evenodd" d="M-6,0 L0,10 L6,0 L-6,0"/>
</g>

<g fill="none" stroke="#000000" stroke-opacity="1" stroke-width="1" stroke-linecap="square" stroke-linejoin="bevel" transform="matrix(0,-0.994778,0.994778,0,289.48,20.8903)"
font-family=".Helvetica Neue DeskInterface" font-size="13" font-weight="400" font-style="normal" 
>
</g>

<g fill="none" stroke="#000000" stroke-opacity="1" stroke-width="1" stroke-linecap="square" stroke-linejoin="bevel" transform="matrix(0.994778,0,0,0.994778,836.608,319.324)"
font-family=".Helvetica Neue DeskInterface" font-size="13" font-weight="400" font-style="normal" 
>
</g>

<g fill="none" stroke="#00316e" stroke-opacity="1" stroke-width="1" stroke-linecap="round" stroke-linejoin="round" transform="matrix(0.994778,0,0,0.994778,836.608,319.324)"
font-family=".Helvetica Neue DeskInterface" font-size="13" font-weight="400" font-style="normal" 
>
<path vector-effect="non-scaling-stroke" fill-rule="evenodd" d="M-600,-300 L-550,-300"/>
</g>

<g fill="none" stroke="#000000" stroke-opacity="1" stroke-width="1" stroke-linecap="square" stroke-linejoin="bevel" transform="matrix(0.994778,0,0,0.994778,836.608,319.324)"
font-family=".Helvetica Neue DeskInterface" font-size="13" font-weight="400" font-style="normal" 
>
</g>

<g fill="none" stroke="#000000" stroke-opacity="1" stroke-width="1" stroke-linecap="square" stroke-linejoin="bevel" transform="matrix(0.994778,0,0,0.994778,836.608,319.324)"
font-family=".Helvetica Neue DeskInterface" font-size="13" font-weight="400" font-style="normal" 
>
</g>

<g fill="none" stroke="#000000" stroke-opacity="1" stroke-width="1" stroke-linecap="square" stroke-linejoin="bevel" transform="matrix(0.994778,0,0,0.994778,836.608,319.324)"
font-family=".Helvetica Neue DeskInterface" font-size="13" font-weight="400" font-style="normal" 
>
</g>

<g fill="none" stroke="#000000" stroke-opacity="1" stroke-width="1" stroke-linecap="square" stroke-linejoin="bevel" transform="matrix(0,0.994778,-0.994778,0,488.436,20.8903)"
font-family=".Helvetica Neue DeskInterface" font-size="13" font-weight="400" font-style="normal" 
>
</g>

<g fill="#ffffff" fill-opacity="1" stroke="#00316e" stroke-opacity="1" stroke-width="1" stroke-linecap="round" stroke-linejoin="round" transform="matrix(0,0.994778,-0.994778,0,488.436,20.8903)"
font-family=".Helvetica Neue DeskInterface" font-size="13" font-weight="400" font-style="normal" 
>
<path vector-effect="non-scaling-stroke" fill-rule="evenodd" d="M-6,0 L0,10 L6,0 L-6,0"/>
</g>

<g fill="none" stroke="#000000" stroke-opacity="1" stroke-width="1" stroke-linecap="square" stroke-linejoin="bevel" transform="matrix(0,0.994778,-0.994778,0,488.436,20.8903)"
font-family=".Helvetica Neue DeskInterface" font-size="13" font-weight="400" font-style="normal" 
>
</g>

<g fill="none" stroke="#000000" stroke-opacity="1" stroke-width="1" stroke-linecap="square" stroke-linejoin="bevel" transform="matrix(0.994778,0,0,0.994778,836.608,319.324)"
font-family=".Helvetica Neue DeskInterface" font-size="13" font-weight="400" font-style="normal" 
>
</g>

<g fill="none" stroke="#00316e" stroke-opacity="1" stroke-width="1" stroke-linecap="round" stroke-linejoin="round" transform="matrix(0.994778,0,0,0.994778,836.608,319.324)"
font-family=".Helvetica Neue DeskInterface" font-size="13" font-weight="400" font-style="normal" 
>
<path vector-effect="non-scaling-stroke" fill-rule="evenodd" d="M-250,-300 L-350,-300"/>
</g>

<g fill="none" stroke="#000000" stroke-opacity="1" stroke-width="1" stroke-linecap="square" stroke-linejoin="bevel" transform="matrix(0.994778,0,0,0.994778,836.608,319.324)"
font-family=".Helvetica Neue DeskInterface" font-size="13" font-weight="400" font-style="normal" 
>
</g>

<g fill="none" stroke="#000000" stroke-opacity="1" stroke-width="1" stroke-linecap="square" stroke-linejoin="bevel" transform="matrix(0.994778,0,0,0.994778,836.608,319.324)"
font-family=".Helvetica Neue DeskInterface" font-size="13" font-weight="400" font-style="normal" 
>
</g>

<g fill="none" stroke="#000000" stroke-opacity="1" stroke-width="1" stroke-linecap="square" stroke-linejoin="bevel" transform="matrix(0.994778,0,0,0.994778,836.608,319.324)"
font-family=".Helvetica Neue DeskInterface" font-size="13" font-weight="400" font-style="normal" 
>
</g>

<g fill="none" stroke="#000000" stroke-opacity="1" stroke-width="1" stroke-linecap="square" stroke-linejoin="bevel" transform="matrix(0.994778,0,0,0.994778,836.608,319.324)"
font-family=".Helvetica Neue DeskInterface" font-size="13" font-weight="400" font-style="normal" 
>
</g>

<g fill="none" stroke="#00316e" stroke-opacity="1" stroke-width="1" stroke-linecap="round" stroke-linejoin="round" transform="matrix(0.994778,0,0,0.994778,836.608,319.324)"
font-family=".Helvetica Neue DeskInterface" font-size="13" font-weight="400" font-style="normal" 
>
<path vector-effect="non-scaling-stroke" fill-rule="evenodd" d="M-530,-170 L-600,-260"/>
</g>

<g fill="none" stroke="#000000" stroke-opacity="1" stroke-width="1" stroke-linecap="square" stroke-linejoin="bevel" transform="matrix(0.994778,0,0,0.994778,836.608,319.324)"
font-family=".Helvetica Neue DeskInterface" font-size="13" font-weight="400" font-style="normal" 
>
</g>

<g fill="none" stroke="#000000" stroke-opacity="1" stroke-width="1" stroke-linecap="square" stroke-linejoin="bevel" transform="matrix(0.994778,0,0,0.994778,836.608,319.324)"
font-family=".Helvetica Neue DeskInterface" font-size="13" font-weight="400" font-style="normal" 
>
</g>

<g fill="none" stroke="#000000" stroke-opacity="1" stroke-width="1" stroke-linecap="square" stroke-linejoin="bevel" transform="matrix(0.994778,0,0,0.994778,836.608,319.324)"
font-family=".Helvetica Neue DeskInterface" font-size="13" font-weight="400" font-style="normal" 
>
</g>

<g fill="none" stroke="#000000" stroke-opacity="1" stroke-width="1" stroke-linecap="square" stroke-linejoin="bevel" transform="matrix(0.994778,0,0,0.994778,836.608,319.324)"
font-family=".Helvetica Neue DeskInterface" font-size="13" font-weight="400" font-style="normal" 
>
</g>

<g fill="none" stroke="#00316e" stroke-opacity="1" stroke-width="1" stroke-linecap="round" stroke-linejoin="round" transform="matrix(0.994778,0,0,0.994778,836.608,319.324)"
font-family=".Helvetica Neue DeskInterface" font-size="13" font-weight="400" font-style="normal" 
>
<path vector-effect="non-scaling-stroke" fill-rule="evenodd" d="M-410,-170 L-250,-260"/>
</g>

<g fill="none" stroke="#000000" stroke-opacity="1" stroke-width="1" stroke-linecap="square" stroke-linejoin="bevel" transform="matrix(0.994778,0,0,0.994778,836.608,319.324)"
font-family=".Helvetica Neue DeskInterface" font-size="13" font-weight="400" font-style="normal" 
>
</g>

<g fill="none" stroke="#000000" stroke-opacity="1" stroke-width="1" stroke-linecap="square" stroke-linejoin="bevel" transform="matrix(0.994778,0,0,0.994778,836.608,319.324)"
font-family=".Helvetica Neue DeskInterface" font-size="13" font-weight="400" font-style="normal" 
>
</g>

<g fill="none" stroke="#000000" stroke-opacity="1" stroke-width="1" stroke-linecap="square" stroke-linejoin="bevel" transform="matrix(0.994778,0,0,0.994778,836.608,319.324)"
font-family=".Helvetica Neue DeskInterface" font-size="13" font-weight="400" font-style="normal" 
>
</g>

<g fill="none" stroke="#000000" stroke-opacity="1" stroke-width="1" stroke-linecap="square" stroke-linejoin="bevel" transform="matrix(0.994778,0,0,0.994778,836.608,319.324)"
font-family=".Helvetica Neue DeskInterface" font-size="13" font-weight="400" font-style="normal" 
>
</g>

<g fill="none" stroke="#00316e" stroke-opacity="1" stroke-width="1" stroke-linecap="round" stroke-linejoin="round" transform="matrix(0.994778,0,0,0.994778,836.608,319.324)"
font-family=".Helvetica Neue DeskInterface" font-size="13" font-weight="400" font-style="normal" 
>
<path vector-effect="non-scaling-stroke" fill-rule="evenodd" d="M-410,-140 L-240,-140"/>
</g>

<g fill="none" stroke="#000000" stroke-opacity="1" stroke-width="1" stroke-linecap="square" stroke-linejoin="bevel" transform="matrix(0.994778,0,0,0.994778,836.608,319.324)"
font-family=".Helvetica Neue DeskInterface" font-size="13" font-weight="400" font-style="normal" 
>
</g>

<g fill="none" stroke="#000000" stroke-opacity="1" stroke-width="1" stroke-linecap="square" stroke-linejoin="bevel" transform="matrix(0.994778,0,0,0.994778,836.608,319.324)"
font-family=".Helvetica Neue DeskInterface" font-size="13" font-weight="400" font-style="normal" 
>
</g>

<g fill="none" stroke="#000000" stroke-opacity="1" stroke-width="1" stroke-linecap="square" stroke-linejoin="bevel" transform="matrix(0.994778,0,0,0.994778,836.608,319.324)"
font-family=".Helvetica Neue DeskInterface" font-size="13" font-weight="400" font-style="normal" 
>
</g>

<g fill="none" stroke="#000000" stroke-opacity="1" stroke-width="1" stroke-linecap="square" stroke-linejoin="bevel" transform="matrix(0.994778,0,0,0.994778,836.608,319.324)"
font-family=".Helvetica Neue DeskInterface" font-size="13" font-weight="400" font-style="normal" 
>
</g>

<g fill="none" stroke="#00316e" stroke-opacity="1" stroke-width="1" stroke-linecap="round" stroke-linejoin="round" transform="matrix(0.994778,0,0,0.994778,836.608,319.324)"
font-family=".Helvetica Neue DeskInterface" font-size="13" font-weight="400" font-style="normal" 
>
<path vector-effect="non-scaling-stroke" fill-rule="evenodd" d="M-510,20 L-600,20"/>
</g>

<g fill="none" stroke="#000000" stroke-opacity="1" stroke-width="1" stroke-linecap="square" stroke-linejoin="bevel" transform="matrix(0.994778,0,0,0.994778,836.608,319.324)"
font-family=".Helvetica Neue DeskInterface" font-size="13" font-weight="400" font-style="normal" 
>
</g>

<g fill="none" stroke="#000000" stroke-opacity="1" stroke-width="1" stroke-linecap="square" stroke-linejoin="bevel" transform="matrix(0.994778,0,0,0.994778,836.608,319.324)"
font-family=".Helvetica Neue DeskInterface" font-size="13" font-weight="400" font-style="normal" 
>
</g>

<g fill="none" stroke="#000000" stroke-opacity="1" stroke-width="1" stroke-linecap="square" stroke-linejoin="bevel" transform="matrix(0.994778,0,0,0.994778,836.608,319.324)"
font-family=".Helvetica Neue DeskInterface" font-size="13" font-weight="400" font-style="normal" 
>
</g>

<g fill="none" stroke="#000000" stroke-opacity="1" stroke-width="1" stroke-linecap="square" stroke-linejoin="bevel" transform="matrix(0.994778,0,0,0.994778,369.063,309.376)"
font-family=".Helvetica Neue DeskInterface" font-size="13" font-weight="400" font-style="normal" 
>
</g>

<g fill="none" stroke="#00316e" stroke-opacity="1" stroke-width="1" stroke-linecap="round" stroke-linejoin="round" transform="matrix(0.994778,0,0,0.994778,369.063,309.376)"
font-family=".Helvetica Neue DeskInterface" font-size="13" font-weight="400" font-style="normal" 
>
<path vector-effect="non-scaling-stroke" fill-rule="evenodd" d="M-6,0 L0,10 L6,0"/>
</g>

<g fill="none" stroke="#000000" stroke-opacity="1" stroke-width="1" stroke-linecap="square" stroke-linejoin="bevel" transform="matrix(0.994778,0,0,0.994778,369.063,309.376)"
font-family=".Helvetica Neue DeskInterface" font-size="13" font-weight="400" font-style="normal" 
>
</g>

<g fill="none" stroke="#000000" stroke-opacity="1" stroke-width="1" stroke-linecap="square" stroke-linejoin="bevel" transform="matrix(0.994778,0,0,0.994778,836.608,319.324)"
font-family=".Helvetica Neue DeskInterface" font-size="13" font-weight="400" font-style="normal" 
>
</g>

<g fill="none" stroke="#00316e" stroke-opacity="1" stroke-width="1" stroke-linecap="round" stroke-linejoin="round" transform="matrix(0.994778,0,0,0.994778,836.608,319.324)"
font-family=".Helvetica Neue DeskInterface" font-size="13" font-weight="400" font-style="normal" 
>
<path vector-effect="non-scaling-stroke" fill-rule="evenodd" d="M-470,-100 L-470,0"/>
</g>

<g fill="none" stroke="#000000" stroke-opacity="1" stroke-width="1" stroke-linecap="square" stroke-linejoin="bevel" transform="matrix(0.994778,0,0,0.994778,836.608,319.324)"
font-family=".Helvetica Neue DeskInterface" font-size="13" font-weight="400" font-style="normal" 
>
</g>

<g fill="none" stroke="#000000" stroke-opacity="1" stroke-width="1" stroke-linecap="square" stroke-linejoin="bevel" transform="matrix(0.994778,0,0,0.994778,836.608,319.324)"
font-family=".Helvetica Neue DeskInterface" font-size="13" font-weight="400" font-style="normal" 
>
</g>

<g fill="none" stroke="#000000" stroke-opacity="1" stroke-width="1" stroke-linecap="square" stroke-linejoin="bevel" transform="matrix(0.994778,0,0,0.994778,836.608,319.324)"
font-family=".Helvetica Neue DeskInterface" font-size="13" font-weight="400" font-style="normal" 
>
</g>

<g fill="none" stroke="#000000" stroke-opacity="1" stroke-width="1" stroke-linecap="square" stroke-linejoin="bevel" transform="matrix(0.994778,0,0,0.994778,836.608,319.324)"
font-family=".Helvetica Neue DeskInterface" font-size="13" font-weight="400" font-style="normal" 
>
</g>

<g fill="none" stroke="#00316e" stroke-opacity="1" stroke-width="1" stroke-linecap="round" stroke-linejoin="round" transform="matrix(0.994778,0,0,0.994778,836.608,319.324)"
font-family=".Helvetica Neue DeskInterface" font-size="13" font-weight="400" font-style="normal" 
>
<path vector-effect="non-scaling-stroke" fill-rule="evenodd" d="M-470,-170 L-470,-260"/>
</g>

<g fill="none" stroke="#000000" stroke-opacity="1" stroke-width="1" stroke-linecap="square" stroke-linejoin="bevel" transform="matrix(0.994778,0,0,0.994778,836.608,319.324)"
font-family=".Helvetica Neue DeskInterface" font-size="13" font-weight="400" font-style="normal" 
>
</g>

<g fill="none" stroke="#000000" stroke-opacity="1" stroke-width="1" stroke-linecap="square" stroke-linejoin="bevel" transform="matrix(0.994778,0,0,0.994778,309.376,150.211)"
font-family=".Helvetica Neue DeskInterface" font-size="13" font-weight="400" font-style="normal" 
>
</g>

<g fill="#e3ad00" fill-opacity="1" stroke="#00316e" stroke-opacity="1" stroke-width="1" stroke-linecap="square" stroke-linejoin="bevel" transform="matrix(0.994778,0,0,0.994778,309.376,150.211)"
font-family="Helvetica" font-size="15" font-weight="400" font-style="normal" 
>
<path vector-effect="non-scaling-stroke" fill-rule="evenodd" d="M68,8 C68,12.4183 62.6274,16 56,16 C49.3726,16 44,12.4183 44,8 C44,3.58172 49.3726,0 56,0 C62.6274,0 68,3.58172 68,8 "/>
<polyline fill="none" vector-effect="non-scaling-stroke" points="56,16 56,32 " />
<polyline fill="none" vector-effect="non-scaling-stroke" points="56,32 44,48 " />
<polyline fill="none" vector-effect="non-scaling-stroke" points="56,32 68,48 " />
<polyline fill="none" vector-effect="non-scaling-stroke" points="44,24 68,24 " />
</g>

<g fill="#e3ad00" fill-opacity="1" stroke="#000000" stroke-opacity="1" stroke-width="1" stroke-linecap="square" stroke-linejoin="bevel" transform="matrix(0.994778,0,0,0.994778,309.376,150.211)"
font-family="Helvetica" font-size="15" font-weight="400" font-style="normal" 
>
</g>

<g fill="#e3ad00" fill-opacity="1" stroke="#000000" stroke-opacity="1" stroke-width="1" stroke-linecap="square" stroke-linejoin="bevel" transform="matrix(0.994778,0,0,0.994778,309.376,150.211)"
font-family="Helvetica" font-size="15" font-weight="400" font-style="normal" 
>
<text fill="#000000" fill-opacity="1" stroke="none" xml:space="preserve" x="4.79688" y="64.5469" font-family="Helvetica" font-size="15" font-weight="400" font-style="normal" 
 >Abteilungsleiter</text>
</g>

<g fill="#e3ad00" fill-opacity="1" stroke="#000000" stroke-opacity="1" stroke-width="1" stroke-linecap="square" stroke-linejoin="bevel" transform="matrix(0.994778,0,0,0.994778,309.376,150.211)"
font-family="Helvetica" font-size="15" font-weight="400" font-style="normal" 
>
</g>

<g fill="#e3ad00" fill-opacity="1" stroke="#000000" stroke-opacity="1" stroke-width="1" stroke-linecap="square" stroke-linejoin="bevel" transform="matrix(1,0,0,1,0,0)"
font-family="Helvetica" font-size="15" font-weight="400" font-style="normal" 
>
</g>

<g fill="#e3ad00" fill-opacity="1" stroke="#000000" stroke-opacity="1" stroke-width="1" stroke-linecap="square" stroke-linejoin="bevel" transform="matrix(0.994778,0,0,0.994778,309.376,150.211)"
font-family="Helvetica" font-size="15" font-weight="400" font-style="normal" 
>
</g>

<g fill="none" stroke="#000000" stroke-opacity="1" stroke-width="1" stroke-linecap="square" stroke-linejoin="bevel" transform="matrix(0.994778,0,0,0.994778,309.376,150.211)"
font-family=".Helvetica Neue DeskInterface" font-size="13" font-weight="400" font-style="normal" 
>
</g>

<g fill="none" stroke="#000000" stroke-opacity="1" stroke-width="1" stroke-linecap="square" stroke-linejoin="bevel" transform="matrix(0.994778,0,0,0.994778,329.272,319.324)"
font-family=".Helvetica Neue DeskInterface" font-size="13" font-weight="400" font-style="normal" 
>
</g>

<g fill="#e3ad00" fill-opacity="1" stroke="#00316e" stroke-opacity="1" stroke-width="1" stroke-linecap="square" stroke-linejoin="bevel" transform="matrix(0.994778,0,0,0.994778,329.272,319.324)"
font-family="Helvetica" font-size="15" font-weight="400" font-style="normal" 
>
<path vector-effect="non-scaling-stroke" fill-rule="evenodd" d="M50,6.5 C50,10.0899 45.5228,13 40,13 C34.4772,13 30,10.0899 30,6.5 C30,2.91015 34.4772,0 40,0 C45.5228,0 50,2.91015 50,6.5 "/>
<polyline fill="none" vector-effect="non-scaling-stroke" points="40,13 40,26 " />
<polyline fill="none" vector-effect="non-scaling-stroke" points="40,26 30,41 " />
<polyline fill="none" vector-effect="non-scaling-stroke" points="40,26 50,41 " />
<polyline fill="none" vector-effect="non-scaling-stroke" points="30,19 50,19 " />
</g>

<g fill="#e3ad00" fill-opacity="1" stroke="#000000" stroke-opacity="1" stroke-width="1" stroke-linecap="square" stroke-linejoin="bevel" transform="matrix(0.994778,0,0,0.994778,329.272,319.324)"
font-family="Helvetica" font-size="15" font-weight="400" font-style="normal" 
>
<text fill="#000000" fill-opacity="1" stroke="none" xml:space="preserve" x="5.125" y="57.5469" font-family="Helvetica" font-size="15" font-weight="400" font-style="normal" 
 >Mitarbeiter</text>
</g>

<g fill="none" stroke="#000000" stroke-opacity="1" stroke-width="1" stroke-linecap="square" stroke-linejoin="bevel" transform="matrix(0.994778,0,0,0.994778,329.272,319.324)"
font-family=".Helvetica Neue DeskInterface" font-size="13" font-weight="400" font-style="normal" 
>
</g>

<g fill="none" stroke="#000000" stroke-opacity="1" stroke-width="1" stroke-linecap="square" stroke-linejoin="bevel" transform="matrix(0.994778,0,0,0.994778,597.862,150.211)"
font-family=".Helvetica Neue DeskInterface" font-size="13" font-weight="400" font-style="normal" 
>
</g>

<g fill="#e3ad00" fill-opacity="1" stroke="#00316e" stroke-opacity="1" stroke-width="1" stroke-linecap="square" stroke-linejoin="bevel" transform="matrix(0.994778,0,0,0.994778,597.862,150.211)"
font-family="Helvetica" font-size="15" font-weight="400" font-style="italic" 
>
<path vector-effect="non-scaling-stroke" fill-rule="evenodd" d="M177,25.5 C177,39.5833 137.377,51 88.5,51 C39.6228,51 0,39.5833 0,25.5 C0,11.4167 39.6228,0 88.5,0 C137.377,0 177,11.4167 177,25.5 "/>
</g>

<g fill="#e3ad00" fill-opacity="1" stroke="#000000" stroke-opacity="1" stroke-width="1" stroke-linecap="square" stroke-linejoin="bevel" transform="matrix(0.994778,0,0,0.994778,597.862,150.211)"
font-family="Helvetica" font-size="15" font-weight="400" font-style="italic" 
>
<text fill="#000000" fill-opacity="1" stroke="none" xml:space="preserve" x="10.25" y="29.5469" font-family="Helvetica" font-size="15" font-weight="400" font-style="italic" 
 >Urlaub verwalten (Abs.)</text>
</g>

<g fill="none" stroke="#000000" stroke-opacity="1" stroke-width="1" stroke-linecap="square" stroke-linejoin="bevel" transform="matrix(0.994778,0,0,0.994778,597.862,150.211)"
font-family=".Helvetica Neue DeskInterface" font-size="13" font-weight="400" font-style="normal" 
>
</g>

<g fill="none" stroke="#000000" stroke-opacity="1" stroke-width="1" stroke-linecap="square" stroke-linejoin="bevel" transform="matrix(0.994778,0,0,0.994778,299.428,0.994778)"
font-family=".Helvetica Neue DeskInterface" font-size="13" font-weight="400" font-style="normal" 
>
</g>

<g fill="#e3ad00" fill-opacity="1" stroke="#00316e" stroke-opacity="1" stroke-width="1" stroke-linecap="square" stroke-linejoin="bevel" transform="matrix(0.994778,0,0,0.994778,299.428,0.994778)"
font-family="Helvetica" font-size="15" font-weight="400" font-style="normal" 
>
<path vector-effect="non-scaling-stroke" fill-rule="evenodd" d="M176,25.5 C176,39.5833 136.601,51 88,51 C39.3989,51 0,39.5833 0,25.5 C0,11.4167 39.3989,0 88,0 C136.601,0 176,11.4167 176,25.5 "/>
</g>

<g fill="#e3ad00" fill-opacity="1" stroke="#000000" stroke-opacity="1" stroke-width="1" stroke-linecap="square" stroke-linejoin="bevel" transform="matrix(0.994778,0,0,0.994778,299.428,0.994778)"
font-family="Helvetica" font-size="15" font-weight="400" font-style="normal" 
>
<text fill="#000000" fill-opacity="1" stroke="none" xml:space="preserve" x="9.71875" y="29.5469" font-family="Helvetica" font-size="15" font-weight="400" font-style="normal" 
 >Gesamtbilanz anzeigen</text>
</g>

<g fill="none" stroke="#000000" stroke-opacity="1" stroke-width="1" stroke-linecap="square" stroke-linejoin="bevel" transform="matrix(0.994778,0,0,0.994778,299.428,0.994778)"
font-family=".Helvetica Neue DeskInterface" font-size="13" font-weight="400" font-style="normal" 
>
</g>

<g fill="none" stroke="#000000" stroke-opacity="1" stroke-width="1" stroke-linecap="square" stroke-linejoin="bevel" transform="matrix(0.994778,0,0,0.994778,0.994778,0.994778)"
font-family=".Helvetica Neue DeskInterface" font-size="13" font-weight="400" font-style="normal" 
>
</g>

<g fill="#e3ad00" fill-opacity="1" stroke="#00316e" stroke-opacity="1" stroke-width="1" stroke-linecap="square" stroke-linejoin="bevel" transform="matrix(0.994778,0,0,0.994778,0.994778,0.994778)"
font-family="Helvetica" font-size="15" font-weight="400" font-style="normal" 
>
<path vector-effect="non-scaling-stroke" fill-rule="evenodd" d="M234,25.5 C234,39.5833 181.617,51 117,51 C52.3827,51 0,39.5833 0,25.5 C0,11.4167 52.3827,0 117,0 C181.617,0 234,11.4167 234,25.5 "/>
</g>

<g fill="#e3ad00" fill-opacity="1" stroke="#000000" stroke-opacity="1" stroke-width="1" stroke-linecap="square" stroke-linejoin="bevel" transform="matrix(0.994778,0,0,0.994778,0.994778,0.994778)"
font-family="Helvetica" font-size="15" font-weight="400" font-style="normal" 
>
<text fill="#000000" fill-opacity="1" stroke="none" xml:space="preserve" x="13.3438" y="29.5469" font-family="Helvetica" font-size="15" font-weight="400" font-style="normal" 
 >Urlaubsinformationen anzeigen</text>
</g>

<g fill="none" stroke="#000000" stroke-opacity="1" stroke-width="1" stroke-linecap="square" stroke-linejoin="bevel" transform="matrix(0.994778,0,0,0.994778,0.994778,0.994778)"
font-family=".Helvetica Neue DeskInterface" font-size="13" font-weight="400" font-style="normal" 
>
</g>

<g fill="none" stroke="#000000" stroke-opacity="1" stroke-width="1" stroke-linecap="square" stroke-linejoin="bevel" transform="matrix(0.994778,0,0,0.994778,587.914,0.994778)"
font-family=".Helvetica Neue DeskInterface" font-size="13" font-weight="400" font-style="normal" 
>
</g>

<g fill="#e3ad00" fill-opacity="1" stroke="#0c00ff" stroke-opacity="1" stroke-width="1" stroke-linecap="square" stroke-linejoin="bevel" transform="matrix(0.994778,0,0,0.994778,587.914,0.994778)"
font-family="Helvetica" font-size="15" font-weight="400" font-style="normal" 
>
<path vector-effect="non-scaling-stroke" fill-rule="evenodd" d="M209,25.5 C209,39.5833 162.214,51 104.5,51 C46.7862,51 0,39.5833 0,25.5 C0,11.4167 46.7862,0 104.5,0 C162.214,0 209,11.4167 209,25.5 "/>
</g>

<g fill="#e3ad00" fill-opacity="1" stroke="#000000" stroke-opacity="1" stroke-width="1" stroke-linecap="square" stroke-linejoin="bevel" transform="matrix(0.994778,0,0,0.994778,587.914,0.994778)"
font-family="Helvetica" font-size="15" font-weight="400" font-style="normal" 
>
<text fill="#000000" fill-opacity="1" stroke="none" xml:space="preserve" x="12.0625" y="29.5469" font-family="Helvetica" font-size="15" font-weight="400" font-style="normal" 
 >Anwesenheitsliste anzeigen</text>
</g>

<g fill="none" stroke="#000000" stroke-opacity="1" stroke-width="1" stroke-linecap="square" stroke-linejoin="bevel" transform="matrix(0.994778,0,0,0.994778,587.914,0.994778)"
font-family=".Helvetica Neue DeskInterface" font-size="13" font-weight="400" font-style="normal" 
>
</g>

<g fill="none" stroke="#000000" stroke-opacity="1" stroke-width="1" stroke-linecap="square" stroke-linejoin="bevel" transform="matrix(1,0,0,1,0,0)"
font-family=".Helvetica Neue DeskInterface" font-size="13" font-weight="400" font-style="normal" 
>
</g>
</g>
</svg>
